<?xml version="1.0" encoding="UTF-8"?>
<!DOCTYPE svg PUBLIC "-//W3C//DTD SVG 1.1//EN" "http://www.w3.org/Graphics/SVG/1.1/DTD/svg11.dtd">
<svg xmlns="http://www.w3.org/2000/svg" version="1.1" width="1448px" height="276px" style="shape-rendering:geometricPrecision; text-rendering:geometricPrecision; image-rendering:optimizeQuality; fill-rule:evenodd; clip-rule:evenodd" xmlns:xlink="http://www.w3.org/1999/xlink">
<g><path style="opacity:0.823" fill="#f6f5f5" d="M 903.5,15.5 C 899.444,15.7261 895.444,16.0595 891.5,16.5C 876.728,2.30763 861.728,1.9743 846.5,15.5C 843.478,16.7914 840.478,16.7914 837.5,15.5C 845.51,5.16506 856.177,0.16506 869.5,0.5C 883.083,0.629578 894.417,5.62958 903.5,15.5 Z"/></g>
<g><path style="opacity:0.703" fill="#fcfcfc" d="M -0.5,1.5 C 23.5,1.5 47.5,1.5 71.5,1.5C 71.5,2.5 71.5,3.5 71.5,4.5C 48.0184,5.01843 24.0184,5.01843 -0.5,4.5C -0.5,3.5 -0.5,2.5 -0.5,1.5 Z"/></g>
<g><path style="opacity:0.856" fill="#f4f4f4" d="M 1290.5,11.5 C 1289.28,12.0283 1288.11,12.695 1287,13.5C 1284.46,12.951 1281.96,12.6177 1279.5,12.5C 1279.5,10.8333 1279.5,9.16667 1279.5,7.5C 1271.83,6.81746 1264.5,7.98413 1257.5,11C 1254.47,14.5917 1253.14,18.7584 1253.5,23.5C 1251.83,23.5 1250.17,23.5 1248.5,23.5C 1248.5,16.1667 1248.5,8.83333 1248.5,1.5C 1272.83,1.5 1297.17,1.5 1321.5,1.5C 1321.5,8.83333 1321.5,16.1667 1321.5,23.5C 1319.83,23.5 1318.17,23.5 1316.5,23.5C 1317.07,18.3944 1315.74,13.8944 1312.5,10C 1305.37,7.76051 1298.03,6.92718 1290.5,7.5C 1290.5,8.83333 1290.5,10.1667 1290.5,11.5 Z"/></g>
<g><path style="opacity:0.885" fill="#f5f5f5" d="M 666.5,16.5 C 665.778,16.0825 665.278,15.4158 665,14.5C 663.47,15.636 662.137,16.636 661,17.5C 660.311,16.6433 659.478,15.9767 658.5,15.5C 657.473,16.7914 656.473,16.7914 655.5,15.5C 655.303,8.96783 651.969,5.96783 645.5,6.5C 645.5,4.83333 645.5,3.16667 645.5,1.5C 655.833,2.83333 666.167,2.83333 676.5,1.5C 676.5,3.16667 676.5,4.83333 676.5,6.5C 669.643,6.16823 666.31,9.50157 666.5,16.5 Z"/></g>
<g><path style="opacity:0.895" fill="#f1f1f1" d="M 71.5,4.5 C 71.5,10.8333 71.5,17.1667 71.5,23.5C 69.8333,23.5 68.1667,23.5 66.5,23.5C 67.7647,15.1657 64.4314,9.99902 56.5,8C 51.1771,7.50065 45.8437,7.33398 40.5,7.5C 40.5,9.5 40.5,11.5 40.5,13.5C 38.1047,13.2284 35.7714,13.2284 33.5,13.5C 31.8405,12.8284 30.5072,11.8284 29.5,10.5C 29.5,9.5 29.5,8.5 29.5,7.5C 21.8311,6.81746 14.4977,7.98413 7.5,11C 4.86104,14.7502 3.52771,18.9168 3.5,23.5C 2.16667,23.5 0.833333,23.5 -0.5,23.5C -0.5,17.1667 -0.5,10.8333 -0.5,4.5C 24.0184,5.01843 48.0184,5.01843 71.5,4.5 Z"/></g>
<g><path style="opacity:0.88" fill="#f6f5f5" d="M 248.5,16.5 C 246.4,15.6146 244.066,15.6146 241.5,16.5C 244.036,13.9928 244.869,10.9928 244,7.5C 242.301,6.59391 240.467,6.26057 238.5,6.5C 238.215,4.71199 238.548,3.04533 239.5,1.5C 246.5,2.83333 253.5,2.83333 260.5,1.5C 261.452,3.04533 261.785,4.71199 261.5,6.5C 259.011,6.29777 256.677,6.79777 254.5,8C 252.248,10.7361 250.248,13.5695 248.5,16.5 Z"/></g>
<g><path style="opacity:0.893" fill="#f7f6f6" d="M 311.5,11.5 C 310.542,11.9528 309.708,12.6195 309,13.5C 305.839,12.7926 302.672,12.1259 299.5,11.5C 297.972,7.56146 294.972,5.89479 290.5,6.5C 290.215,4.71199 290.548,3.04533 291.5,1.5C 300.833,2.83333 310.167,2.83333 319.5,1.5C 320.452,3.04533 320.785,4.71199 320.5,6.5C 316.415,6.37234 313.415,8.039 311.5,11.5 Z"/></g>
<g><path style="opacity:0.886" fill="#f6f6f6" d="M 451.5,11.5 C 448.617,13.4073 445.45,13.4073 442,11.5C 441.617,12.056 441.117,12.3893 440.5,12.5C 430.967,5.80094 420.634,4.30094 409.5,8C 406.062,9.6107 403.062,11.7774 400.5,14.5C 399.469,13.7515 398.302,13.0848 397,12.5C 395.586,13.4132 394.086,13.4132 392.5,12.5C 406.577,-0.0678066 422.577,-2.90114 440.5,4C 444.894,5.58184 448.561,8.08184 451.5,11.5 Z"/></g>
<g><path style="opacity:0.896" fill="#f4f4f4" d="M 551.5,16.5 C 548.754,16.0728 545.921,15.7395 543,15.5C 541.697,15.9783 540.531,16.645 539.5,17.5C 538.056,12.8886 535.056,9.72189 530.5,8C 525.566,6.83992 520.566,6.33992 515.5,6.5C 515.5,10.5 515.5,14.5 515.5,18.5C 514.596,17.791 514.263,16.791 514.5,15.5C 511.054,15.9819 507.721,15.9819 504.5,15.5C 504.352,9.02084 501.019,6.02084 494.5,6.5C 494.215,4.71199 494.548,3.04533 495.5,1.5C 507.795,2.17061 520.128,2.33728 532.5,2C 541.879,3.00531 548.212,7.83864 551.5,16.5 Z"/></g>
<g><path style="opacity:0.912" fill="#f5f5f5" d="M 758.5,15.5 C 755.72,15.9452 753.053,15.9452 750.5,15.5C 749.808,16.0253 749.308,16.6919 749,17.5C 748.722,16.5842 748.222,15.9175 747.5,15.5C 747.305,8.97036 743.972,5.97036 737.5,6.5C 737.215,4.71199 737.548,3.04533 738.5,1.5C 748.487,2.78304 758.487,2.78304 768.5,1.5C 768.5,3.16667 768.5,4.83333 768.5,6.5C 761.983,6.01832 758.65,9.01832 758.5,15.5 Z"/></g>
<g><path style="opacity:0.958" fill="#f5f5f5" d="M 1062.5,11.5 C 1059.25,13.92 1055.58,13.92 1051.5,11.5C 1049.9,7.52746 1046.9,5.8608 1042.5,6.5C 1042.5,4.83333 1042.5,3.16667 1042.5,1.5C 1060.83,2.81972 1079.16,2.81972 1097.5,1.5C 1098.23,8.47564 1098.56,15.4756 1098.5,22.5C 1097.17,22.5 1095.83,22.5 1094.5,22.5C 1094.62,16.8961 1092.28,12.7295 1087.5,10C 1079.24,8.65961 1070.9,7.82627 1062.5,7.5C 1062.5,8.83333 1062.5,10.1667 1062.5,11.5 Z"/></g>
<g><path style="opacity:0.977" fill="#f8f8f7" d="M 1156.5,8.5 C 1152.11,9.37224 1147.45,9.70557 1142.5,9.5C 1139.75,7.0255 1136.42,6.0255 1132.5,6.5C 1132.5,4.83333 1132.5,3.16667 1132.5,1.5C 1138.33,2.75664 1144.17,2.75664 1150,1.5C 1153.04,3.03764 1155.2,5.37097 1156.5,8.5 Z"/></g>
<g><path style="opacity:0.943" fill="#f3f3f3" d="M 1211.5,19.5 C 1209.24,19.3982 1206.91,19.7316 1204.5,20.5C 1203.91,16.7992 1203.08,13.1325 1202,9.5C 1200,7.25297 1197.5,6.25297 1194.5,6.5C 1194.5,4.83333 1194.5,3.16667 1194.5,1.5C 1202.85,2.77108 1211.18,2.77108 1219.5,1.5C 1220.45,3.04533 1220.79,4.71199 1220.5,6.5C 1213.38,7.75275 1210.38,12.0861 1211.5,19.5 Z"/></g>
<g><path style="opacity:0.911" fill="#f4f4f4" d="M 1370.5,16.5 C 1367.68,16.2417 1364.84,15.9083 1362,15.5C 1360.73,16.9047 1360.23,18.5714 1360.5,20.5C 1360.17,20.5 1359.83,20.5 1359.5,20.5C 1359.85,16.3628 1359.35,12.3628 1358,8.5C 1355.77,6.88664 1353.27,6.21997 1350.5,6.5C 1350.5,4.83333 1350.5,3.16667 1350.5,1.5C 1369.16,2.806 1387.82,2.806 1406.5,1.5C 1406.5,8.5 1406.5,15.5 1406.5,22.5C 1405.17,22.5 1403.83,22.5 1402.5,22.5C 1403.06,16.6291 1400.72,12.4625 1395.5,10C 1387.24,8.65961 1378.9,7.82627 1370.5,7.5C 1370.5,10.5 1370.5,13.5 1370.5,16.5 Z"/></g>
<g><path style="opacity:0.931" fill="#f6f6f6" d="M 208.5,12.5 C 204.008,12.8359 199.675,12.8359 195.5,12.5C 193.18,8.171 189.513,6.171 184.5,6.5C 184.5,4.83333 184.5,3.16667 184.5,1.5C 193.667,2.7899 202.834,2.7899 212,1.5C 214.157,2.38498 214.99,4.05165 214.5,6.5C 209.262,5.73331 207.262,7.73331 208.5,12.5 Z"/></g>
<g><path style="opacity:0.923" fill="#f4f4f4" d="M 998.5,15.5 C 995.834,16.1699 993.334,16.1699 991,15.5C 989.698,16.0848 988.531,16.7515 987.5,17.5C 981.982,8.06197 973.815,4.72864 963,7.5C 962.503,10.146 962.336,12.8127 962.5,15.5C 958.619,15.2767 954.952,15.61 951.5,16.5C 952.5,8.83333 949.167,5.5 941.5,6.5C 941.116,4.33515 941.783,2.66848 943.5,1.5C 955.795,2.17061 968.128,2.33728 980.5,2C 989.33,3.02633 995.33,7.52633 998.5,15.5 Z"/></g>
<g><path style="opacity:0.79" fill="#f0f0f0" d="M 1435.5,-0.5 C 1436.5,-0.5 1437.5,-0.5 1438.5,-0.5C 1441.99,0.644196 1444.99,2.6442 1447.5,5.5C 1447.5,8.83333 1447.5,12.1667 1447.5,15.5C 1444.03,21.08 1439.03,22.9133 1432.5,21C 1426.89,17.7231 1425.06,12.8897 1427,6.5C 1428.87,2.78382 1431.7,0.450492 1435.5,-0.5 Z M 1435.5,7.5 C 1437.98,7.72998 1438.48,8.39665 1437,9.5C 1435.97,9.16389 1435.47,8.49722 1435.5,7.5 Z M 1441.5,5.5 C 1444.91,8.13525 1445.24,11.1352 1442.5,14.5C 1441.74,13.3717 1441.07,12.2051 1440.5,11C 1441.41,9.30054 1441.74,7.4672 1441.5,5.5 Z M 1432.5,5.5 C 1432.67,9.18174 1432.5,12.8484 1432,16.5C 1428.62,12.5405 1428.79,8.87388 1432.5,5.5 Z M 1441.5,5.5 C 1438.5,4.16667 1435.5,4.16667 1432.5,5.5C 1433.49,3.9735 1434.99,3.30684 1437,3.5C 1439.01,3.30684 1440.51,3.9735 1441.5,5.5 Z M 1435.5,12.5 C 1437.91,12.6941 1438.91,14.0274 1438.5,16.5C 1439.55,16.3505 1440.55,16.5172 1441.5,17C 1438.76,18.8928 1436.09,18.8928 1433.5,17C 1435.11,15.951 1435.77,14.451 1435.5,12.5 Z"/></g>
<g><path style="opacity:0.956" fill="#efefef" d="M 126.5,-0.5 C 127.833,-0.5 129.167,-0.5 130.5,-0.5C 131.969,4.57378 133.636,9.57378 135.5,14.5C 135.465,15.4037 134.965,16.0704 134,16.5C 130.88,16.5546 127.88,16.2213 125,15.5C 124.667,16.1667 124.333,16.8333 124,17.5C 122.887,16.695 121.721,16.0283 120.5,15.5C 122.695,10.2491 124.695,4.91576 126.5,-0.5 Z"/></g>
<g><path style="opacity:0.862" fill="#e0e0e0" d="M 135.5,14.5 C 137.153,17.7594 138.819,21.0928 140.5,24.5C 136.719,24.1314 133.052,24.1314 129.5,24.5C 128.625,22.4319 127.459,20.4319 126,18.5C 124.572,22.307 123.072,25.9736 121.5,29.5C 121.189,28.5222 120.522,27.8555 119.5,27.5C 118.473,28.7914 117.473,28.7914 116.5,27.5C 117.633,23.4331 118.967,19.4331 120.5,15.5C 121.721,16.0283 122.887,16.695 124,17.5C 124.333,16.8333 124.667,16.1667 125,15.5C 127.88,16.2213 130.88,16.5546 134,16.5C 134.965,16.0704 135.465,15.4037 135.5,14.5 Z"/></g>
<g><path style="opacity:0.897" fill="#e4e4e4" d="M 1156.5,8.5 C 1161.21,12.9131 1165.21,17.9131 1168.5,23.5C 1164.01,24.1476 1159.68,24.4809 1155.5,24.5C 1153.53,22.3533 1151.7,20.02 1150,17.5C 1149.5,19.8098 1149.34,22.1432 1149.5,24.5C 1147.92,25.6266 1145.92,25.6266 1143.5,24.5C 1143.78,19.4053 1143.45,14.4053 1142.5,9.5C 1147.45,9.70557 1152.11,9.37224 1156.5,8.5 Z"/></g>
<g><path style="opacity:0.936" fill="#dedede" d="M 551.5,16.5 C 552.781,19.7877 553.115,23.121 552.5,26.5C 549.037,27.4339 545.37,27.4339 541.5,26.5C 541.084,23.4173 540.417,20.4173 539.5,17.5C 540.531,16.645 541.697,15.9783 543,15.5C 545.921,15.7395 548.754,16.0728 551.5,16.5 Z"/></g>
<g><path style="opacity:0.713" fill="#bebebd" d="M 1359.5,20.5 C 1359.83,20.5 1360.17,20.5 1360.5,20.5C 1360.18,24.5546 1360.51,28.5546 1361.5,32.5C 1364.48,32.7213 1367.48,32.388 1370.5,31.5C 1370.5,34.1667 1370.5,36.8333 1370.5,39.5C 1376.88,39.6072 1383.21,39.1072 1389.5,38C 1392.92,36.2659 1394.59,33.4326 1394.5,29.5C 1395.83,29.5 1397.17,29.5 1398.5,29.5C 1398.5,37.1667 1398.5,44.8333 1398.5,52.5C 1396.83,52.5 1395.17,52.5 1393.5,52.5C 1393.9,49.9556 1393.23,47.7889 1391.5,46C 1384.59,44.6156 1377.59,44.1156 1370.5,44.5C 1370.5,46.1667 1370.5,47.8333 1370.5,49.5C 1367.58,49.7077 1364.24,50.041 1360.5,50.5C 1360.5,52.8333 1360.5,55.1667 1360.5,57.5C 1360.17,57.5 1359.83,57.5 1359.5,57.5C 1359.5,45.1667 1359.5,32.8333 1359.5,20.5 Z"/></g>
<g><path style="opacity:0.922" fill="#dddddd" d="M 29.5,10.5 C 30.5072,11.8284 31.8405,12.8284 33.5,13.5C 35.7714,13.2284 38.1047,13.2284 40.5,13.5C 40.5,18.1667 40.5,22.8333 40.5,27.5C 37.7566,28.0176 34.9232,28.3509 32,28.5C 31.6454,27.4909 30.8121,26.8243 29.5,26.5C 29.5,21.1667 29.5,15.8333 29.5,10.5 Z"/></g>
<g><path style="opacity:0.897" fill="#dcdcdc" d="M 208.5,12.5 C 211.513,18.5266 214.513,24.5266 217.5,30.5C 215.577,31.0364 213.41,31.0364 211,30.5C 209.014,30.5687 207.514,31.2353 206.5,32.5C 202.849,25.8683 199.182,19.2016 195.5,12.5C 199.675,12.8359 204.008,12.8359 208.5,12.5 Z"/></g>
<g><path style="opacity:0.945" fill="#dddddd" d="M 299.5,11.5 C 302.672,12.1259 305.839,12.7926 309,13.5C 309.708,12.6195 310.542,11.9528 311.5,11.5C 310.646,17.1209 310.313,22.7876 310.5,28.5C 306.927,27.6339 303.26,27.3005 299.5,27.5C 299.5,22.1667 299.5,16.8333 299.5,11.5 Z"/></g>
<g><path style="opacity:0.946" fill="#dddddd" d="M 392.5,12.5 C 394.086,13.4132 395.586,13.4132 397,12.5C 398.302,13.0848 399.469,13.7515 400.5,14.5C 397.633,18.2397 395.3,22.2397 393.5,26.5C 392.542,26.9528 391.708,27.6195 391,28.5C 388.123,27.8668 385.289,27.5335 382.5,27.5C 384.607,21.6022 387.94,16.6022 392.5,12.5 Z"/></g>
<g><path style="opacity:0.936" fill="#dddddd" d="M 451.5,11.5 C 456.721,15.7282 460.387,21.0615 462.5,27.5C 458.292,28.2635 454.292,28.5968 450.5,28.5C 448.181,22.5268 444.847,17.1935 440.5,12.5C 441.117,12.3893 441.617,12.056 442,11.5C 445.45,13.4073 448.617,13.4073 451.5,11.5 Z"/></g>
<g><path style="opacity:0.922" fill="#dddddd" d="M 1051.5,11.5 C 1055.58,13.92 1059.25,13.92 1062.5,11.5C 1062.5,16.8333 1062.5,22.1667 1062.5,27.5C 1058.92,28.5885 1055.26,28.5885 1051.5,27.5C 1051.5,22.1667 1051.5,16.8333 1051.5,11.5 Z"/></g>
<g><path style="opacity:0.827" fill="#d8d8d7" d="M 1211.5,19.5 C 1211.81,23.3714 1211.48,27.0381 1210.5,30.5C 1208.3,30.9349 1206.3,30.9349 1204.5,30.5C 1204.5,27.1667 1204.5,23.8333 1204.5,20.5C 1206.91,19.7316 1209.24,19.3982 1211.5,19.5 Z"/></g>
<g><path style="opacity:0.919" fill="#dddddd" d="M 1290.5,11.5 C 1290.5,16.8333 1290.5,22.1667 1290.5,27.5C 1287.93,27.3444 1285.43,27.6777 1283,28.5C 1281.7,28.0217 1280.53,27.355 1279.5,26.5C 1279.5,21.8333 1279.5,17.1667 1279.5,12.5C 1281.96,12.6177 1284.46,12.951 1287,13.5C 1288.11,12.695 1289.28,12.0283 1290.5,11.5 Z"/></g>
<g><path style="opacity:0.955" fill="#d7d7d7" d="M 666.5,16.5 C 666.5,21.1667 666.5,25.8333 666.5,30.5C 662.794,31.6861 659.127,31.6861 655.5,30.5C 655.5,25.5 655.5,20.5 655.5,15.5C 656.473,16.7914 657.473,16.7914 658.5,15.5C 659.478,15.9767 660.311,16.6433 661,17.5C 662.137,16.636 663.47,15.636 665,14.5C 665.278,15.4158 665.778,16.0825 666.5,16.5 Z"/></g>
<g><path style="opacity:0.941" fill="#d8d7d7" d="M 747.5,15.5 C 748.222,15.9175 748.722,16.5842 749,17.5C 749.308,16.6919 749.808,16.0253 750.5,15.5C 753.053,15.9452 755.72,15.9452 758.5,15.5C 758.5,20.8333 758.5,26.1667 758.5,31.5C 754.918,31.2511 751.251,31.2511 747.5,31.5C 747.5,26.1667 747.5,20.8333 747.5,15.5 Z"/></g>
<g><path style="opacity:0.961" fill="#d8d8d7" d="M 903.5,15.5 C 907.24,20.3134 909.907,25.6467 911.5,31.5C 907.364,30.6986 903.364,30.6986 899.5,31.5C 897.596,26.144 894.929,21.144 891.5,16.5C 895.444,16.0595 899.444,15.7261 903.5,15.5 Z"/></g>
<g><path style="opacity:0.988" fill="#d7d7d7" d="M 1370.5,16.5 C 1370.5,21.5 1370.5,26.5 1370.5,31.5C 1367.48,32.388 1364.48,32.7213 1361.5,32.5C 1360.51,28.5546 1360.18,24.5546 1360.5,20.5C 1360.23,18.5714 1360.73,16.9047 1362,15.5C 1364.84,15.9083 1367.68,16.2417 1370.5,16.5 Z"/></g>
<g><path style="opacity:0.869" fill="#d8d8d8" d="M 248.5,16.5 C 246.196,21.1499 243.863,25.8165 241.5,30.5C 239.167,30.5 236.833,30.5 234.5,30.5C 236.833,25.8333 239.167,21.1667 241.5,16.5C 244.066,15.6146 246.4,15.6146 248.5,16.5 Z"/></g>
<g><path style="opacity:0.99" fill="#d7d7d7" d="M 504.5,15.5 C 507.721,15.9819 511.054,15.9819 514.5,15.5C 514.263,16.791 514.596,17.791 515.5,18.5C 515.5,23.1667 515.5,27.8333 515.5,32.5C 511.936,31.5773 508.269,31.244 504.5,31.5C 504.5,26.1667 504.5,20.8333 504.5,15.5 Z"/></g>
<g><path style="opacity:0.93" fill="#d7d7d7" d="M 837.5,15.5 C 840.478,16.7914 843.478,16.7914 846.5,15.5C 843.363,21.2544 841.03,27.2544 839.5,33.5C 839.53,32.5028 839.03,31.8361 838,31.5C 836.044,31.6607 834.044,31.9941 832,32.5C 831.292,31.6195 830.458,30.9528 829.5,30.5C 830.878,24.7403 833.545,19.7403 837.5,15.5 Z"/></g>
<g><path style="opacity:0.916" fill="#d7d7d7" d="M 962.5,15.5 C 962.5,20.5 962.5,25.5 962.5,30.5C 961.542,30.9528 960.708,31.6195 960,32.5C 957.161,31.1555 954.327,30.8222 951.5,31.5C 951.5,26.5 951.5,21.5 951.5,16.5C 954.952,15.61 958.619,15.2767 962.5,15.5 Z"/></g>
<g><path style="opacity:0.936" fill="#d7d7d7" d="M 998.5,15.5 C 999.973,18.0169 1000.64,20.8502 1000.5,24C 1000.58,27.4511 999.913,30.6177 998.5,33.5C 998.586,32.5041 998.252,31.6708 997.5,31C 994.121,31.8448 991.121,31.6781 988.5,30.5C 988.628,26.1186 988.295,21.7853 987.5,17.5C 988.531,16.7515 989.698,16.0848 991,15.5C 993.334,16.1699 995.834,16.1699 998.5,15.5 Z"/></g>
<g><path style="opacity:0.898" fill="#cecece" d="M 1168.5,23.5 C 1171.85,26.8514 1174.85,30.5181 1177.5,34.5C 1173.14,35.2338 1168.8,35.5672 1164.5,35.5C 1161.15,32.1486 1158.15,28.4819 1155.5,24.5C 1159.68,24.4809 1164.01,24.1476 1168.5,23.5 Z"/></g>
<g><path style="opacity:0.906" fill="#cacaca" d="M 140.5,24.5 C 142.167,29.1667 143.833,33.8333 145.5,38.5C 142.239,39.1425 138.906,39.4759 135.5,39.5C 133.129,34.7353 131.129,29.7353 129.5,24.5C 133.052,24.1314 136.719,24.1314 140.5,24.5 Z"/></g>
<g><path style="opacity:0.924" fill="#c6c5c5" d="M 217.5,30.5 C 219.818,34.4645 222.152,38.4645 224.5,42.5C 220.294,41.485 216.294,41.485 212.5,42.5C 210.012,39.5342 208.012,36.2009 206.5,32.5C 207.514,31.2353 209.014,30.5687 211,30.5C 213.41,31.0364 215.577,31.0364 217.5,30.5 Z"/></g>
<g><path style="opacity:0.931" fill="#cccccc" d="M 1149.5,24.5 C 1149.24,28.65 1149.24,32.65 1149.5,36.5C 1148.73,37.2625 1148.23,38.2625 1148,39.5C 1146.44,39.0879 1144.94,38.7546 1143.5,38.5C 1143.5,33.8333 1143.5,29.1667 1143.5,24.5C 1145.92,25.6266 1147.92,25.6266 1149.5,24.5 Z"/></g>
<g><path style="opacity:0.902" fill="#c5c5c5" d="M 234.5,30.5 C 236.833,30.5 239.167,30.5 241.5,30.5C 239.152,34.5355 236.818,38.5355 234.5,42.5C 232.926,41.2733 230.926,41.2733 228.5,42.5C 230.487,38.5266 232.487,34.5266 234.5,30.5 Z"/></g>
<g><path style="opacity:0.907" fill="#c4c4c4" d="M 29.5,26.5 C 30.8121,26.8243 31.6454,27.4909 32,28.5C 34.9232,28.3509 37.7566,28.0176 40.5,27.5C 40.5,32.5 40.5,37.5 40.5,42.5C 39.3115,43.0476 38.1448,43.3809 37,43.5C 36.3333,42.8333 35.6667,42.1667 35,41.5C 33.1722,42.7525 31.3388,42.7525 29.5,41.5C 29.5,36.5 29.5,31.5 29.5,26.5 Z"/></g>
<g><path style="opacity:0.944" fill="#c4c4c4" d="M 299.5,27.5 C 303.26,27.3005 306.927,27.6339 310.5,28.5C 310.5,33.5 310.5,38.5 310.5,43.5C 307.66,42.8796 304.826,42.2129 302,41.5C 301.292,42.3805 300.458,43.0472 299.5,43.5C 299.5,38.1667 299.5,32.8333 299.5,27.5 Z"/></g>
<g><path style="opacity:0.927" fill="#c4c4c4" d="M 462.5,27.5 C 464.876,32.1059 465.876,37.1059 465.5,42.5C 461.221,43.7132 457.221,43.7132 453.5,42.5C 453.126,37.6748 452.126,33.0082 450.5,28.5C 454.292,28.5968 458.292,28.2635 462.5,27.5 Z"/></g>
<g><path style="opacity:0.94" fill="#c4c3c3" d="M 1051.5,27.5 C 1055.26,28.5885 1058.92,28.5885 1062.5,27.5C 1062.5,31.5 1062.5,35.5 1062.5,39.5C 1068.88,39.6072 1075.21,39.1072 1081.5,38C 1085.05,36.3229 1086.38,33.4896 1085.5,29.5C 1087.17,29.5 1088.83,29.5 1090.5,29.5C 1090.63,33.8814 1090.29,38.2147 1089.5,42.5C 1078.2,42.5863 1066.37,42.2529 1054,41.5C 1052.99,42.0556 1052.16,42.7222 1051.5,43.5C 1051.5,38.1667 1051.5,32.8333 1051.5,27.5 Z"/></g>
<g><path style="opacity:0.861" fill="#c5c5c4" d="M 116.5,27.5 C 117.473,28.7914 118.473,28.7914 119.5,27.5C 120.522,27.8555 121.189,28.5222 121.5,29.5C 120.401,34.1442 118.734,38.4775 116.5,42.5C 114.304,41.7575 112.304,41.4241 110.5,41.5C 112.323,36.6796 114.323,32.0129 116.5,27.5 Z"/></g>
<g><path style="opacity:0.964" fill="#c5c5c5" d="M 393.5,26.5 C 393.122,31.58 392.455,36.58 391.5,41.5C 387.797,42.1187 383.797,42.452 379.5,42.5C 379.861,37.3604 380.861,32.3604 382.5,27.5C 385.289,27.5335 388.123,27.8668 391,28.5C 391.708,27.6195 392.542,26.9528 393.5,26.5 Z"/></g>
<g><path style="opacity:0.889" fill="#c5c5c4" d="M 1279.5,26.5 C 1280.53,27.355 1281.7,28.0217 1283,28.5C 1285.43,27.6777 1287.93,27.3444 1290.5,27.5C 1290.5,32.5 1290.5,37.5 1290.5,42.5C 1287.09,42.116 1283.42,41.7827 1279.5,41.5C 1279.5,36.5 1279.5,31.5 1279.5,26.5 Z"/></g>
<g><path style="opacity:0.936" fill="#bfbfbe" d="M 541.5,26.5 C 545.37,27.4339 549.037,27.4339 552.5,26.5C 551.788,36.5485 546.454,42.5485 536.5,44.5C 535.448,45.5305 534.114,46.1971 532.5,46.5C 522.816,46.3418 513.483,46.3418 504.5,46.5C 504.5,41.5 504.5,36.5 504.5,31.5C 508.269,31.244 511.936,31.5773 515.5,32.5C 515.183,35.5719 515.516,38.5719 516.5,41.5C 524.595,43.684 531.762,42.0174 538,36.5C 539.73,33.3304 540.896,29.997 541.5,26.5 Z"/></g>
<g><path style="opacity:0.914" fill="#bebebe" d="M 655.5,30.5 C 659.127,31.6861 662.794,31.6861 666.5,30.5C 666.5,35.5 666.5,40.5 666.5,45.5C 663.706,45.5845 661.206,45.9178 659,46.5C 657.607,43.8749 656.441,43.8749 655.5,46.5C 655.5,41.1667 655.5,35.8333 655.5,30.5 Z"/></g>
<g><path style="opacity:0.901" fill="#bfbebe" d="M 758.5,31.5 C 758.5,36.5 758.5,41.5 758.5,46.5C 754.866,46.4499 751.199,46.1166 747.5,45.5C 747.5,40.8333 747.5,36.1667 747.5,31.5C 751.251,31.2511 754.918,31.2511 758.5,31.5 Z"/></g>
<g><path style="opacity:0.968" fill="#bdbdbd" d="M 829.5,30.5 C 830.458,30.9528 831.292,31.6195 832,32.5C 834.044,31.9941 836.044,31.6607 838,31.5C 839.03,31.8361 839.53,32.5028 839.5,33.5C 839.5,37.8333 839.5,42.1667 839.5,46.5C 835.497,46.1608 831.497,45.8275 827.5,45.5C 826.957,45.44 826.624,45.1067 826.5,44.5C 827.067,39.6229 828.067,34.9562 829.5,30.5 Z"/></g>
<g><path style="opacity:0.915" fill="#bfbfbf" d="M 962.5,30.5 C 962.5,34.1667 962.5,37.8333 962.5,41.5C 968.992,43.1176 975.326,42.6176 981.5,40C 984.853,37.4954 987.186,34.3287 988.5,30.5C 991.121,31.6781 994.121,31.8448 997.5,31C 998.252,31.6708 998.586,32.5041 998.5,33.5C 997.565,35.8614 996.232,38.0281 994.5,40C 991.01,42.412 987.343,44.2453 983.5,45.5C 972.564,46.7029 961.898,46.7029 951.5,45.5C 951.5,40.8333 951.5,36.1667 951.5,31.5C 954.327,30.8222 957.161,31.1555 960,32.5C 960.708,31.6195 961.542,30.9528 962.5,30.5 Z"/></g>
<g><path style="opacity:0.821" fill="#b4b3b3" d="M 1089.5,42.5 C 1090.48,45.6248 1090.81,48.9581 1090.5,52.5C 1088.83,52.5 1087.17,52.5 1085.5,52.5C 1085.68,50.0637 1085.02,47.897 1083.5,46C 1076.59,44.6156 1069.59,44.1156 1062.5,44.5C 1062.5,48.5 1062.5,52.5 1062.5,56.5C 1059.09,56.1297 1055.43,56.1297 1051.5,56.5C 1051.5,52.1667 1051.5,47.8333 1051.5,43.5C 1052.16,42.7222 1052.99,42.0556 1054,41.5C 1066.37,42.2529 1078.2,42.5863 1089.5,42.5 Z"/></g>
<g><path style="opacity:0.877" fill="#bfbfbf" d="M 1204.5,30.5 C 1206.3,30.9349 1208.3,30.9349 1210.5,30.5C 1210.5,35.1667 1210.5,39.8333 1210.5,44.5C 1208.55,45.6414 1206.55,45.6414 1204.5,44.5C 1204.5,39.8333 1204.5,35.1667 1204.5,30.5 Z"/></g>
<g><path style="opacity:0.948" fill="#bebebe" d="M 911.5,31.5 C 912.981,36.0117 913.648,40.6784 913.5,45.5C 909.285,46.3185 905.285,46.3185 901.5,45.5C 900.74,40.8498 900.074,36.1831 899.5,31.5C 903.364,30.6986 907.364,30.6986 911.5,31.5 Z"/></g>
<g><path style="opacity:0.922" fill="#aeaead" d="M 983.5,45.5 C 985.75,48.9988 987.75,52.6654 989.5,56.5C 986.893,56.0263 983.893,55.6929 980.5,55.5C 979.261,55.9424 978.261,56.6091 977.5,57.5C 975.752,54.5695 973.752,51.7361 971.5,49C 968.522,48.304 965.522,47.804 962.5,47.5C 962.5,50.5 962.5,53.5 962.5,56.5C 958.547,56.1024 954.88,55.769 951.5,55.5C 951.5,52.1667 951.5,48.8333 951.5,45.5C 961.898,46.7029 972.564,46.7029 983.5,45.5 Z"/></g>
<g><path style="opacity:0.878" fill="#b2b2b1" d="M 145.5,38.5 C 148.012,42.8662 150.012,47.5329 151.5,52.5C 149.409,52.3184 147.409,52.6518 145.5,53.5C 144.522,53.0233 143.689,52.3567 143,51.5C 142.722,52.4158 142.222,53.0825 141.5,53.5C 132.068,52.1841 122.735,52.1841 113.5,53.5C 111.244,53.6018 108.911,53.2684 106.5,52.5C 107.835,48.8285 109.168,45.1618 110.5,41.5C 112.304,41.4241 114.304,41.7575 116.5,42.5C 116.67,43.8221 116.337,44.9887 115.5,46C 122.856,46.8313 130.189,46.6646 137.5,45.5C 136.628,43.5504 135.961,41.5504 135.5,39.5C 138.906,39.4759 142.239,39.1425 145.5,38.5 Z"/></g>
<g><path style="opacity:0.932" fill="#b4b4b4" d="M 224.5,42.5 C 225.557,46.1684 226.891,46.1684 228.5,42.5C 230.926,41.2733 232.926,41.2733 234.5,42.5C 233.404,45.0316 232.071,47.3649 230.5,49.5C 228.932,49.6408 227.265,49.9742 225.5,50.5C 224.808,49.9747 224.308,49.3081 224,48.5C 223.692,49.3081 223.192,49.9747 222.5,50.5C 221.28,49.2889 220.113,49.2889 219,50.5C 217.887,49.695 216.721,49.0283 215.5,48.5C 213.992,46.8185 212.992,44.8185 212.5,42.5C 216.294,41.485 220.294,41.485 224.5,42.5 Z"/></g>
<g><path style="opacity:0.89" fill="#b8b8b8" d="M 1177.5,34.5 C 1181.73,39.2782 1185.73,44.2782 1189.5,49.5C 1185.28,49.2723 1180.95,49.6057 1176.5,50.5C 1172.27,45.7218 1168.27,40.7218 1164.5,35.5C 1168.8,35.5672 1173.14,35.2338 1177.5,34.5 Z"/></g>
<g><path style="opacity:0.904" fill="#acacab" d="M 827.5,45.5 C 831.497,45.8275 835.497,46.1608 839.5,46.5C 840.04,49.8647 840.706,53.198 841.5,56.5C 839.311,55.5916 837.144,55.925 835,57.5C 833.006,55.813 830.839,55.1463 828.5,55.5C 827.586,52.272 827.253,48.9387 827.5,45.5 Z"/></g>
<g><path style="opacity:0.985" fill="#acacab" d="M 901.5,45.5 C 905.285,46.3185 909.285,46.3185 913.5,45.5C 913.354,49.3875 912.687,53.0542 911.5,56.5C 907.945,56.7023 904.278,56.369 900.5,55.5C 901.207,52.2139 901.54,48.8806 901.5,45.5 Z"/></g>
<g><path style="opacity:0.85" fill="#afafae" d="M 1149.5,36.5 C 1149.5,43.8333 1149.5,51.1667 1149.5,58.5C 1146.93,59.2387 1144.6,59.2387 1142.5,58.5C 1143.46,51.9221 1143.79,45.2554 1143.5,38.5C 1144.94,38.7546 1146.44,39.0879 1148,39.5C 1148.23,38.2625 1148.73,37.2625 1149.5,36.5 Z"/></g>
<g><path style="opacity:0.879" fill="#ababab" d="M 29.5,41.5 C 31.3388,42.7525 33.1722,42.7525 35,41.5C 35.6667,42.1667 36.3333,42.8333 37,43.5C 38.1448,43.3809 39.3115,43.0476 40.5,42.5C 40.5,47.1667 40.5,51.8333 40.5,56.5C 36.9217,56.2549 33.2551,56.2549 29.5,56.5C 29.5,51.5 29.5,46.5 29.5,41.5 Z"/></g>
<g><path style="opacity:0.92" fill="#acacab" d="M 453.5,42.5 C 457.221,43.7132 461.221,43.7132 465.5,42.5C 465.804,43.1499 466.137,43.8165 466.5,44.5C 466.006,49.0714 465.006,53.4048 463.5,57.5C 463.189,56.5222 462.522,55.8555 461.5,55.5C 458.522,55.2787 455.522,55.612 452.5,56.5C 453.441,51.9296 453.774,47.263 453.5,42.5 Z"/></g>
<g><path style="opacity:0.953" fill="#acabab" d="M 310.5,43.5 C 310.5,47.5 310.5,51.5 310.5,55.5C 306.992,56.2373 303.326,56.2373 299.5,55.5C 299.5,51.5 299.5,47.5 299.5,43.5C 300.458,43.0472 301.292,42.3805 302,41.5C 304.826,42.2129 307.66,42.8796 310.5,43.5 Z"/></g>
<g><path style="opacity:0.934" fill="#acabab" d="M 391.5,41.5 C 392.239,46.1472 392.906,50.8138 393.5,55.5C 389.691,56.4004 385.691,56.7337 381.5,56.5C 380.019,51.9883 379.352,47.3216 379.5,42.5C 383.797,42.452 387.797,42.1187 391.5,41.5 Z"/></g>
<g><path style="opacity:0.985" fill="#a8a8a7" d="M 536.5,44.5 C 537.895,48.2901 539.562,51.9568 541.5,55.5C 540.521,57.9896 539.354,57.9896 538,55.5C 535.08,56.4642 531.913,56.4642 528.5,55.5C 526.232,49.5786 521.899,46.912 515.5,47.5C 515.5,53.1667 515.5,58.8333 515.5,64.5C 513.862,63.8411 512.195,63.1744 510.5,62.5C 508.62,62.9298 506.62,62.9298 504.5,62.5C 504.5,57.1667 504.5,51.8333 504.5,46.5C 513.483,46.3418 522.816,46.3418 532.5,46.5C 534.114,46.1971 535.448,45.5305 536.5,44.5 Z"/></g>
<g><path style="opacity:0.92" fill="#acacab" d="M 1279.5,41.5 C 1283.42,41.7827 1287.09,42.116 1290.5,42.5C 1290.5,46.8333 1290.5,51.1667 1290.5,55.5C 1286.96,56.2489 1283.3,56.2489 1279.5,55.5C 1279.5,50.8333 1279.5,46.1667 1279.5,41.5 Z"/></g>
<g><path style="opacity:0.894" fill="#9b9b9b" d="M 106.5,52.5 C 108.911,53.2684 111.244,53.6018 113.5,53.5C 111.5,59.1667 109.5,64.8333 107.5,70.5C 105.193,70.0137 103.027,70.0137 101,70.5C 100.536,69.9056 100.369,69.2389 100.5,68.5C 101.947,62.943 103.947,57.6097 106.5,52.5 Z"/></g>
<g><path style="opacity:0.943" fill="#a6a6a5" d="M 666.5,45.5 C 666.5,50.1667 666.5,54.8333 666.5,59.5C 662.766,59.6773 659.099,59.3439 655.5,58.5C 655.5,54.5 655.5,50.5 655.5,46.5C 656.441,43.8749 657.607,43.8749 659,46.5C 661.206,45.9178 663.706,45.5845 666.5,45.5 Z"/></g>
<g><path style="opacity:0.931" fill="#a5a5a5" d="M 747.5,45.5 C 751.199,46.1166 754.866,46.4499 758.5,46.5C 758.5,50.8333 758.5,55.1667 758.5,59.5C 754.731,59.244 751.064,59.5773 747.5,60.5C 747.5,55.5 747.5,50.5 747.5,45.5 Z"/></g>
<g><path style="opacity:0.991" fill="#a3a3a3" d="M 1370.5,49.5 C 1370.5,52.8333 1370.5,56.1667 1370.5,59.5C 1366.88,59.2149 1363.55,59.2149 1360.5,59.5C 1360.5,58.8333 1360.5,58.1667 1360.5,57.5C 1360.5,55.1667 1360.5,52.8333 1360.5,50.5C 1364.24,50.041 1367.58,49.7077 1370.5,49.5 Z"/></g>
<g><path style="opacity:0.82" fill="#a6a6a5" d="M 1204.5,44.5 C 1206.55,45.6414 1208.55,45.6414 1210.5,44.5C 1210.5,49.1667 1210.5,53.8333 1210.5,58.5C 1209.39,60.744 1207.89,60.744 1206,58.5C 1205.72,59.4158 1205.22,60.0825 1204.5,60.5C 1204.5,55.1667 1204.5,49.8333 1204.5,44.5 Z"/></g>
<g><path style="opacity:0.892" fill="#9f9f9e" d="M 215.5,48.5 C 216.721,49.0283 217.887,49.695 219,50.5C 220.113,49.2889 221.28,49.2889 222.5,50.5C 223.192,49.9747 223.692,49.3081 224,48.5C 224.308,49.3081 224.808,49.9747 225.5,50.5C 227.265,49.9742 228.932,49.6408 230.5,49.5C 229.617,54.1031 229.283,58.7697 229.5,63.5C 226.658,62.5683 223.824,62.9016 221,64.5C 220.292,63.6195 219.458,62.9528 218.5,62.5C 218.665,59.4816 218.498,56.4816 218,53.5C 216.628,52.0899 215.795,50.4233 215.5,48.5 Z"/></g>
<g><path style="opacity:0.869" fill="#9a9999" d="M 463.5,57.5 C 463.248,61.3267 461.915,64.6601 459.5,67.5C 458.306,64.9824 457.14,64.9824 456,67.5C 453.959,66.5769 451.792,66.2436 449.5,66.5C 450.901,63.2964 451.901,59.9631 452.5,56.5C 455.522,55.612 458.522,55.2787 461.5,55.5C 462.522,55.8555 463.189,56.5222 463.5,57.5 Z"/></g>
<g><path style="opacity:0.906" fill="#999898" d="M 40.5,56.5 C 40.5,60.1667 40.5,63.8333 40.5,67.5C 36.8815,66.7564 33.2148,66.423 29.5,66.5C 29.5,63.1667 29.5,59.8333 29.5,56.5C 33.2551,56.2549 36.9217,56.2549 40.5,56.5 Z"/></g>
<g><path style="opacity:0.934" fill="#999999" d="M 528.5,55.5 C 531.913,56.4642 535.08,56.4642 538,55.5C 539.354,57.9896 540.521,57.9896 541.5,55.5C 543.485,58.7976 545.485,62.1309 547.5,65.5C 543.076,66.2516 539.076,66.5849 535.5,66.5C 532.931,63.039 530.597,59.3723 528.5,55.5 Z"/></g>
<g><path style="opacity:0.931" fill="#a09f9f" d="M 1189.5,49.5 C 1193.65,53.7949 1197.31,58.4616 1200.5,63.5C 1196.02,63.2699 1191.68,63.2699 1187.5,63.5C 1183.49,59.4851 1179.82,55.1518 1176.5,50.5C 1180.95,49.6057 1185.28,49.2723 1189.5,49.5 Z"/></g>
<g><path style="opacity:0.924" fill="#9b9a9a" d="M 151.5,52.5 C 153.676,57.0079 155.676,61.6746 157.5,66.5C 154.334,67.488 150.667,67.488 146.5,66.5C 144.263,62.4656 142.596,58.1323 141.5,53.5C 142.222,53.0825 142.722,52.4158 143,51.5C 143.689,52.3567 144.522,53.0233 145.5,53.5C 147.409,52.6518 149.409,52.3184 151.5,52.5 Z"/></g>
<g><path style="opacity:0.942" fill="#949493" d="M 900.5,55.5 C 904.278,56.369 907.945,56.7023 911.5,56.5C 910.903,61.0169 909.237,65.0169 906.5,68.5C 904.494,69.1664 902.66,69.1664 901,68.5C 900.309,70.8912 899.309,70.8912 898,68.5C 897.329,69.2524 896.496,69.5858 895.5,69.5C 897.728,65.0426 899.394,60.376 900.5,55.5 Z"/></g>
<g><path style="opacity:0.992" fill="#939292" d="M 1370.5,59.5 C 1370.5,62.8333 1370.5,66.1667 1370.5,69.5C 1367.04,70.0812 1363.87,70.4145 1361,70.5C 1360.5,66.8484 1360.33,63.1817 1360.5,59.5C 1363.55,59.2149 1366.88,59.2149 1370.5,59.5 Z"/></g>
<g><path style="opacity:0.93" fill="#939393" d="M 393.5,55.5 C 395.306,60.4455 397.639,65.1122 400.5,69.5C 395.893,69.2097 391.893,69.5431 388.5,70.5C 384.6,66.6995 382.266,62.0328 381.5,56.5C 385.691,56.7337 389.691,56.4004 393.5,55.5 Z"/></g>
<g><path style="opacity:0.918" fill="#969695" d="M 828.5,55.5 C 830.839,55.1463 833.006,55.813 835,57.5C 837.144,55.925 839.311,55.5916 841.5,56.5C 843.243,60.9838 845.243,65.3171 847.5,69.5C 846.417,69.5394 845.417,69.8728 844.5,70.5C 843.483,67.972 842.316,67.972 841,70.5C 839.057,69.193 837.223,69.193 835.5,70.5C 831.886,66.1833 829.553,61.1833 828.5,55.5 Z"/></g>
<g><path style="opacity:0.93" fill="#929292" d="M 1062.5,56.5 C 1062.5,60.8333 1062.5,65.1667 1062.5,69.5C 1058.86,70.2292 1055.2,70.2292 1051.5,69.5C 1051.5,65.1667 1051.5,60.8333 1051.5,56.5C 1055.43,56.1297 1059.09,56.1297 1062.5,56.5 Z"/></g>
<g><path style="opacity:0.869" fill="#8c8b8b" d="M 1210.5,58.5 C 1210.5,64.5 1210.5,70.5 1210.5,76.5C 1206.18,75.6024 1201.85,75.6024 1197.5,76.5C 1193.44,72.7163 1190.11,68.383 1187.5,63.5C 1191.68,63.2699 1196.02,63.2699 1200.5,63.5C 1201.79,64.2899 1202.96,65.2899 1204,66.5C 1204.5,64.5273 1204.66,62.5273 1204.5,60.5C 1205.22,60.0825 1205.72,59.4158 1206,58.5C 1207.89,60.744 1209.39,60.744 1210.5,58.5 Z"/></g>
<g><path style="opacity:0.926" fill="#929292" d="M 1279.5,55.5 C 1283.3,56.2489 1286.96,56.2489 1290.5,55.5C 1290.5,60.5 1290.5,65.5 1290.5,70.5C 1289.54,70.0472 1288.71,69.3805 1288,68.5C 1287.69,69.3081 1287.19,69.9747 1286.5,70.5C 1283.9,69.7797 1281.57,69.7797 1279.5,70.5C 1279.5,65.5 1279.5,60.5 1279.5,55.5 Z"/></g>
<g><path style="opacity:0.949" fill="#8f8e8e" d="M 299.5,55.5 C 303.326,56.2373 306.992,56.2373 310.5,55.5C 310.128,62.3 310.794,68.9666 312.5,75.5C 309.808,76.2112 307.308,76.2112 305,75.5C 304.333,78.1667 303.667,78.1667 303,75.5C 301.855,76.6843 300.688,76.6843 299.5,75.5C 299.5,68.8333 299.5,62.1667 299.5,55.5 Z"/></g>
<g><path style="opacity:0.929" fill="#919090" d="M 951.5,55.5 C 954.88,55.769 958.547,56.1024 962.5,56.5C 962.5,61.5 962.5,66.5 962.5,71.5C 959.149,73.1557 955.482,73.4891 951.5,72.5C 951.5,66.8333 951.5,61.1667 951.5,55.5 Z"/></g>
<g><path style="opacity:0.898" fill="#939392" d="M 989.5,56.5 C 992.084,60.6662 994.417,64.9996 996.5,69.5C 992.547,69.5473 988.547,69.5473 984.5,69.5C 982.167,65.5 979.833,61.5 977.5,57.5C 978.261,56.6091 979.261,55.9424 980.5,55.5C 983.893,55.6929 986.893,56.0263 989.5,56.5 Z"/></g>
<g><path style="opacity:0.949" fill="#868686" d="M 547.5,65.5 C 549.258,69.3538 551.258,73.0205 553.5,76.5C 549.731,76.244 546.064,76.5773 542.5,77.5C 539.806,74.1237 537.473,70.457 535.5,66.5C 539.076,66.5849 543.076,66.2516 547.5,65.5 Z"/></g>
<g><path style="opacity:0.923" fill="#8e8d8d" d="M 655.5,58.5 C 659.099,59.3439 662.766,59.6773 666.5,59.5C 666.353,64.2142 666.686,68.8809 667.5,73.5C 663.5,72.1667 659.5,72.1667 655.5,73.5C 655.5,68.5 655.5,63.5 655.5,58.5 Z"/></g>
<g><path style="opacity:0.969" fill="#8a8a89" d="M 758.5,59.5 C 758.051,65.3534 758.717,71.02 760.5,76.5C 755.937,76.6272 751.271,76.2938 746.5,75.5C 747.254,70.5365 747.587,65.5365 747.5,60.5C 751.064,59.5773 754.731,59.244 758.5,59.5 Z"/></g>
<g><path style="opacity:0.972" fill="#8d8d8c" d="M 1142.5,58.5 C 1144.6,59.2387 1146.93,59.2387 1149.5,58.5C 1149.34,63.547 1149.67,68.547 1150.5,73.5C 1147.98,73.043 1145.31,73.043 1142.5,73.5C 1142.5,68.5 1142.5,63.5 1142.5,58.5 Z"/></g>
<g><path style="opacity:0.941" fill="#868685" d="M 157.5,66.5 C 158.84,69.5293 160.173,72.5293 161.5,75.5C 157.549,75.5364 153.549,75.8697 149.5,76.5C 148.901,73.0369 147.901,69.7036 146.5,66.5C 150.667,67.488 154.334,67.488 157.5,66.5 Z"/></g>
<g><path style="opacity:0.945" fill="#868685" d="M 218.5,62.5 C 219.458,62.9528 220.292,63.6195 221,64.5C 223.824,62.9016 226.658,62.5683 229.5,63.5C 229.5,67.5 229.5,71.5 229.5,75.5C 225.902,76.0609 221.902,76.3942 217.5,76.5C 218.441,71.9296 218.774,67.263 218.5,62.5 Z"/></g>
<g><path style="opacity:0.882" fill="#878787" d="M 352.5,75.5 C 350.167,76.8333 347.833,76.8333 345.5,75.5C 347.709,71.8606 348.709,67.8606 348.5,63.5C 350.167,63.5 351.833,63.5 353.5,63.5C 353.495,67.5341 353.162,71.5341 352.5,75.5 Z"/></g>
<g><path style="opacity:0.938" fill="#868585" d="M 504.5,62.5 C 506.62,62.9298 508.62,62.9298 510.5,62.5C 512.195,63.1744 513.862,63.8411 515.5,64.5C 515.5,68.1667 515.5,71.8333 515.5,75.5C 511.175,75.5163 507.175,75.5163 503.5,75.5C 504.2,71.2022 504.533,66.8689 504.5,62.5 Z"/></g>
<g><path style="opacity:0.949" fill="#807f7f" d="M 29.5,66.5 C 33.2148,66.423 36.8815,66.7564 40.5,67.5C 40.423,71.2148 40.7564,74.8815 41.5,78.5C 37.4599,79.6273 33.1266,79.6273 28.5,78.5C 29.3597,74.5662 29.693,70.5662 29.5,66.5 Z"/></g>
<g><path style="opacity:0.889" fill="#807f7f" d="M 459.5,67.5 C 457.211,72.7293 453.545,76.7293 448.5,79.5C 446.533,79.7394 444.699,79.4061 443,78.5C 441.568,80.9312 440.068,80.9312 438.5,78.5C 442.847,75.1517 446.514,71.1517 449.5,66.5C 451.792,66.2436 453.959,66.5769 456,67.5C 457.14,64.9824 458.306,64.9824 459.5,67.5 Z"/></g>
<g><path style="opacity:0.916" fill="#757574" d="M 1210.5,76.5 C 1210.5,79.8333 1210.5,83.1667 1210.5,86.5C 1208.47,86.6621 1206.47,86.4955 1204.5,86C 1201.95,82.9556 1199.62,79.7889 1197.5,76.5C 1201.85,75.6024 1206.18,75.6024 1210.5,76.5 Z"/></g>
<g><path style="opacity:0.893" fill="#797979" d="M 400.5,69.5 C 404.795,74.971 410.129,78.971 416.5,81.5C 414.559,81.8693 412.725,82.536 411,83.5C 410.692,82.6919 410.192,82.0253 409.5,81.5C 407.164,81.6231 404.831,81.9565 402.5,82.5C 396.595,79.89 391.928,75.89 388.5,70.5C 391.893,69.5431 395.893,69.2097 400.5,69.5 Z"/></g>
<g><path style="opacity:0.914" fill="#777776" d="M 708.5,82.5 C 700.275,81.7008 692.108,81.3675 684,81.5C 683.333,84.1667 682.667,84.1667 682,81.5C 673.72,82.3715 665.22,82.3715 656.5,81.5C 655.522,81.9767 654.689,82.6433 654,83.5C 652.43,82.4514 650.93,81.4514 649.5,80.5C 653.085,79.7343 655.085,77.4009 655.5,73.5C 659.5,72.1667 663.5,72.1667 667.5,73.5C 669.033,76.2762 671.366,78.1096 674.5,79C 681.167,79.6667 687.833,79.6667 694.5,79C 701.435,76.3257 704.768,71.159 704.5,63.5C 705.833,63.5 707.167,63.5 708.5,63.5C 708.5,69.8333 708.5,76.1667 708.5,82.5 Z"/></g>
<g><path style="opacity:0.836" fill="#737372" d="M 746.5,75.5 C 751.271,76.2938 755.937,76.6272 760.5,76.5C 762.359,77.5942 764.359,78.4275 766.5,79C 773.914,79.8903 781.247,79.557 788.5,78C 793.873,74.7573 796.54,69.924 796.5,63.5C 797.833,63.5 799.167,63.5 800.5,63.5C 800.5,70.8333 800.5,78.1667 800.5,85.5C 779.5,85.5 758.5,85.5 737.5,85.5C 737.5,84.1667 737.5,82.8333 737.5,81.5C 742.027,81.6721 745.027,79.6721 746.5,75.5 Z"/></g>
<g><path style="opacity:0.933" fill="#7a7a79" d="M 847.5,69.5 C 851.679,74.3547 856.679,78.0213 862.5,80.5C 861.486,81.7647 859.986,82.4313 858,82.5C 855.284,81.896 852.784,81.896 850.5,82.5C 844.341,80.0135 839.341,76.0135 835.5,70.5C 837.223,69.193 839.057,69.193 841,70.5C 842.316,67.972 843.483,67.972 844.5,70.5C 845.417,69.8728 846.417,69.5394 847.5,69.5 Z"/></g>
<g><path style="opacity:0.876" fill="#7a7a79" d="M 906.5,68.5 C 902.703,74.9659 897.37,79.6325 890.5,82.5C 888.795,81.9119 887.128,81.5786 885.5,81.5C 884.119,83.9288 883.119,83.5954 882.5,80.5C 887.738,77.9304 892.072,74.2637 895.5,69.5C 896.496,69.5858 897.329,69.2524 898,68.5C 899.309,70.8912 900.309,70.8912 901,68.5C 902.66,69.1664 904.494,69.1664 906.5,68.5 Z"/></g>
<g><path style="opacity:0.976" fill="#7a7a79" d="M 984.5,69.5 C 988.547,69.5473 992.547,69.5473 996.5,69.5C 998.787,73.1219 1001.45,76.4552 1004.5,79.5C 1003.09,80.4249 1001.59,81.4249 1000,82.5C 998.739,82.2409 997.739,81.5742 997,80.5C 996.005,81.0659 995.172,81.7326 994.5,82.5C 990.432,78.7611 987.099,74.4278 984.5,69.5 Z"/></g>
<g><path style="opacity:0.86" fill="#787877" d="M 1102.5,82.5 C 1101.56,79.8749 1100.39,79.8749 1099,82.5C 1094.1,82.0309 1088.77,82.0309 1083,82.5C 1081.71,82.0496 1080.55,81.3829 1079.5,80.5C 1078.09,81.4266 1076.59,82.4266 1075,83.5C 1074.33,82.8333 1073.67,82.1667 1073,81.5C 1070.27,81.1516 1067.61,81.8182 1065,83.5C 1062.88,82.7728 1060.71,82.1062 1058.5,81.5C 1054.76,82.0694 1051.09,82.4028 1047.5,82.5C 1046.7,82.0431 1046.37,81.3764 1046.5,80.5C 1048.75,80.0844 1050.25,78.751 1051,76.5C 1051.5,74.1902 1051.66,71.8568 1051.5,69.5C 1055.2,70.2292 1058.86,70.2292 1062.5,69.5C 1062.68,72.2165 1063.18,74.8832 1064,77.5C 1064.75,78.1258 1065.58,78.6258 1066.5,79C 1073.5,79.6667 1080.5,79.6667 1087.5,79C 1095.12,77.2092 1099.45,72.3759 1100.5,64.5C 1101.69,63.5713 1103.02,63.238 1104.5,63.5C 1103.9,69.8425 1103.23,76.1758 1102.5,82.5 Z"/></g>
<g><path style="opacity:0.896" fill="#797978" d="M 1290.5,70.5 C 1289.57,75.3143 1291.24,78.6477 1295.5,80.5C 1294.63,81.5251 1293.46,82.1918 1292,82.5C 1286,82.1704 1280,82.1704 1274,82.5C 1273.54,81.9056 1273.37,81.2389 1273.5,80.5C 1275.39,80.7035 1276.89,80.0368 1278,78.5C 1279.08,75.9373 1279.58,73.2706 1279.5,70.5C 1281.57,69.7797 1283.9,69.7797 1286.5,70.5C 1287.19,69.9747 1287.69,69.3081 1288,68.5C 1288.71,69.3805 1289.54,70.0472 1290.5,70.5 Z"/></g>
<g><path style="opacity:0.865" fill="#797878" d="M 1359.5,57.5 C 1359.83,57.5 1360.17,57.5 1360.5,57.5C 1360.5,58.1667 1360.5,58.8333 1360.5,59.5C 1360.33,63.1817 1360.5,66.8484 1361,70.5C 1363.87,70.4145 1367.04,70.0812 1370.5,69.5C 1371.21,71.7463 1371.71,74.0796 1372,76.5C 1372.5,77.6667 1373.33,78.5 1374.5,79C 1381.83,79.6667 1389.17,79.6667 1396.5,79C 1404.03,76.6313 1408.03,71.4646 1408.5,63.5C 1409.83,63.5 1411.17,63.5 1412.5,63.5C 1412.22,69.5889 1411.56,75.5889 1410.5,81.5C 1407.48,81.673 1404.31,82.3396 1401,83.5C 1400.67,82.8333 1400.33,82.1667 1400,81.5C 1395.72,82.5283 1391.39,82.5283 1387,81.5C 1385.12,83.8253 1383.45,83.8253 1382,81.5C 1372.68,81.5167 1363.18,81.5167 1353.5,81.5C 1356.06,80.7797 1357.89,79.113 1359,76.5C 1359.5,70.1754 1359.67,63.8421 1359.5,57.5 Z"/></g>
<g><path style="opacity:0.935" fill="#6f6f6e" d="M 229.5,75.5 C 231.198,79.8769 234.531,81.8769 239.5,81.5C 239.5,82.8333 239.5,84.1667 239.5,85.5C 229.167,85.5 218.833,85.5 208.5,85.5C 208.5,84.1667 208.5,82.8333 208.5,81.5C 212.74,81.7269 215.74,80.0603 217.5,76.5C 221.902,76.3942 225.902,76.0609 229.5,75.5 Z"/></g>
<g><path style="opacity:0.909" fill="#6a6a69" d="M 862.5,80.5 C 869.151,83.0759 875.817,83.0759 882.5,80.5C 883.119,83.5954 884.119,83.9288 885.5,81.5C 887.128,81.5786 888.795,81.9119 890.5,82.5C 888.615,84.3115 886.281,85.4782 883.5,86C 871.925,88.8453 860.925,87.6786 850.5,82.5C 852.784,81.896 855.284,81.896 858,82.5C 859.986,82.4313 861.486,81.7647 862.5,80.5 Z"/></g>
<g><path style="opacity:0.916" fill="#717171" d="M 962.5,71.5 C 962.167,78.5 965.5,81.8333 972.5,81.5C 972.5,82.8333 972.5,84.1667 972.5,85.5C 962.167,85.5 951.833,85.5 941.5,85.5C 941.5,84.1667 941.5,82.8333 941.5,81.5C 948.019,81.9794 951.352,78.9794 951.5,72.5C 955.482,73.4891 959.149,73.1557 962.5,71.5 Z"/></g>
<g><path style="opacity:0.95" fill="#6c6c6c" d="M 1046.5,80.5 C 1046.37,81.3764 1046.7,82.0431 1047.5,82.5C 1051.09,82.4028 1054.76,82.0694 1058.5,81.5C 1060.71,82.1062 1062.88,82.7728 1065,83.5C 1067.61,81.8182 1070.27,81.1516 1073,81.5C 1073.67,82.1667 1074.33,82.8333 1075,83.5C 1076.59,82.4266 1078.09,81.4266 1079.5,80.5C 1080.55,81.3829 1081.71,82.0496 1083,82.5C 1088.77,82.0309 1094.1,82.0309 1099,82.5C 1100.39,79.8749 1101.56,79.8749 1102.5,82.5C 1102.5,83.5 1102.5,84.5 1102.5,85.5C 1082.5,85.5 1062.5,85.5 1042.5,85.5C 1042.5,84.1667 1042.5,82.8333 1042.5,81.5C 1043.96,81.5674 1045.29,81.2341 1046.5,80.5 Z"/></g>
<g><path style="opacity:0.973" fill="#70706f" d="M 1150.5,73.5 C 1150.92,78.9114 1153.92,81.5781 1159.5,81.5C 1159.5,82.8333 1159.5,84.1667 1159.5,85.5C 1150.83,85.5 1142.17,85.5 1133.5,85.5C 1133.22,81.9621 1134.88,80.1288 1138.5,80C 1140.67,78.322 1142,76.1553 1142.5,73.5C 1145.31,73.043 1147.98,73.043 1150.5,73.5 Z"/></g>
<g><path style="opacity:0.912" fill="#6d6d6c" d="M 1273.5,80.5 C 1273.37,81.2389 1273.54,81.9056 1274,82.5C 1280,82.1704 1286,82.1704 1292,82.5C 1293.46,82.1918 1294.63,81.5251 1295.5,80.5C 1297.12,81.038 1298.78,81.3713 1300.5,81.5C 1300.5,82.8333 1300.5,84.1667 1300.5,85.5C 1290.17,85.5 1279.83,85.5 1269.5,85.5C 1269.5,84.1667 1269.5,82.8333 1269.5,81.5C 1270.96,81.5674 1272.29,81.2341 1273.5,80.5 Z"/></g>
<g><path style="opacity:0.953" fill="#6e6e6d" d="M 28.5,78.5 C 33.1266,79.6273 37.4599,79.6273 41.5,78.5C 44.1848,80.2591 47.1848,81.2591 50.5,81.5C 50.5,82.8333 50.5,84.1667 50.5,85.5C 40.1667,85.5 29.8333,85.5 19.5,85.5C 19.5,84.1667 19.5,82.8333 19.5,81.5C 22.8152,81.2591 25.8152,80.2591 28.5,78.5 Z"/></g>
<g><path style="opacity:0.964" fill="#717170" d="M 100.5,68.5 C 100.369,69.2389 100.536,69.9056 101,70.5C 103.027,70.0137 105.193,70.0137 107.5,70.5C 106.992,72.8654 106.325,75.1987 105.5,77.5C 106.853,79.7379 108.853,81.0713 111.5,81.5C 112.429,82.6888 112.762,84.0222 112.5,85.5C 103.833,85.5 95.1667,85.5 86.5,85.5C 86.238,84.0222 86.5713,82.6888 87.5,81.5C 94.218,79.4488 98.5514,75.1154 100.5,68.5 Z"/></g>
<g><path style="opacity:0.947" fill="#6f6f6e" d="M 161.5,75.5 C 164.138,78.4927 167.471,80.4927 171.5,81.5C 172.429,82.6888 172.762,84.0222 172.5,85.5C 161.833,85.5 151.167,85.5 140.5,85.5C 140.5,84.1667 140.5,82.8333 140.5,81.5C 142.927,81.477 145.26,80.977 147.5,80C 148.823,79.1841 149.489,78.0174 149.5,76.5C 153.549,75.8697 157.549,75.5364 161.5,75.5 Z"/></g>
<g><path style="opacity:0.991" fill="#70706f" d="M 299.5,75.5 C 300.688,76.6843 301.855,76.6843 303,75.5C 303.667,78.1667 304.333,78.1667 305,75.5C 307.308,76.2112 309.808,76.2112 312.5,75.5C 317.162,78.9577 322.496,80.2911 328.5,79.5C 334.754,80.2533 340.421,78.9199 345.5,75.5C 347.833,76.8333 350.167,76.8333 352.5,75.5C 352.5,78.8333 352.5,82.1667 352.5,85.5C 331.833,85.5 311.167,85.5 290.5,85.5C 290.5,84.1667 290.5,82.8333 290.5,81.5C 295.115,81.6605 298.115,79.6605 299.5,75.5 Z"/></g>
<g><path style="opacity:0.908" fill="#6c6c6b" d="M 438.5,78.5 C 440.068,80.9312 441.568,80.9312 443,78.5C 444.699,79.4061 446.533,79.7394 448.5,79.5C 438.674,86.5372 427.674,89.0372 415.5,87C 410.757,86.3649 406.424,84.8649 402.5,82.5C 404.831,81.9565 407.164,81.6231 409.5,81.5C 410.192,82.0253 410.692,82.6919 411,83.5C 412.725,82.536 414.559,81.8693 416.5,81.5C 424.232,83.3 431.566,82.3 438.5,78.5 Z"/></g>
<g><path style="opacity:0.974" fill="#6f6f6e" d="M 503.5,75.5 C 507.175,75.5163 511.175,75.5163 515.5,75.5C 515.751,77.1703 516.418,78.6703 517.5,80C 519.813,80.662 522.146,81.162 524.5,81.5C 524.5,82.8333 524.5,84.1667 524.5,85.5C 514.5,85.5 504.5,85.5 494.5,85.5C 494.5,84.1667 494.5,82.8333 494.5,81.5C 499.027,81.6721 502.027,79.6721 503.5,75.5 Z"/></g>
<g><path style="opacity:0.881" fill="#6f6f6e" d="M 553.5,76.5 C 557.205,80.6846 561.872,82.6846 567.5,82.5C 567.5,83.8333 567.5,85.1667 567.5,86.5C 557.071,88.8055 548.738,85.8055 542.5,77.5C 546.064,76.5773 549.731,76.244 553.5,76.5 Z"/></g>
<g><path style="opacity:0.906" fill="#6b6b6a" d="M 649.5,80.5 C 650.93,81.4514 652.43,82.4514 654,83.5C 654.689,82.6433 655.522,81.9767 656.5,81.5C 665.22,82.3715 673.72,82.3715 682,81.5C 682.667,84.1667 683.333,84.1667 684,81.5C 692.108,81.3675 700.275,81.7008 708.5,82.5C 708.5,83.5 708.5,84.5 708.5,85.5C 687.5,85.5 666.5,85.5 645.5,85.5C 645.5,84.1667 645.5,82.8333 645.5,81.5C 646.959,81.5674 648.292,81.2341 649.5,80.5 Z"/></g>
<g><path style="opacity:0.975" fill="#6c6c6c" d="M 1353.5,81.5 C 1363.18,81.5167 1372.68,81.5167 1382,81.5C 1383.45,83.8253 1385.12,83.8253 1387,81.5C 1391.39,82.5283 1395.72,82.5283 1400,81.5C 1400.33,82.1667 1400.67,82.8333 1401,83.5C 1404.31,82.3396 1407.48,81.673 1410.5,81.5C 1410.5,82.8333 1410.5,84.1667 1410.5,85.5C 1390.5,85.5 1370.5,85.5 1350.5,85.5C 1350.5,84.1667 1350.5,82.8333 1350.5,81.5C 1351.5,81.5 1352.5,81.5 1353.5,81.5 Z"/></g>
<g><path style="opacity:0.704" fill="#6a6a6a" d="M 1004.5,79.5 C 1007.73,81.8771 1011.39,82.8771 1015.5,82.5C 1015.5,83.8333 1015.5,85.1667 1015.5,86.5C 1010.49,86.6659 1005.49,86.4993 1000.5,86C 998.09,85.4005 996.09,84.2338 994.5,82.5C 995.172,81.7326 996.005,81.0659 997,80.5C 997.739,81.5742 998.739,82.2409 1000,82.5C 1001.59,81.4249 1003.09,80.4249 1004.5,79.5 Z"/></g>
<g><path style="opacity:0.779" fill="#fefefe" d="M 511.5,135.5 C 512.833,135.5 514.167,135.5 515.5,135.5C 515.5,144.5 515.5,153.5 515.5,162.5C 518.167,162.5 520.833,162.5 523.5,162.5C 523.5,163.833 523.5,165.167 523.5,166.5C 519.5,166.5 515.5,166.5 511.5,166.5C 511.5,156.167 511.5,145.833 511.5,135.5 Z"/></g>
<g><path style="opacity:0.718" fill="#fefefe" d="M 538.5,135.5 C 546.235,134.395 550.735,137.729 552,145.5C 553.298,153.015 551.798,159.848 547.5,166C 537.862,168.724 533.029,164.891 533,154.5C 531.758,147.168 533.592,140.835 538.5,135.5 Z M 540.5,139.5 C 544.251,139.082 546.418,140.749 547,144.5C 547.667,149.167 547.667,153.833 547,158.5C 544,163.833 541,163.833 538,158.5C 537.333,153.833 537.333,149.167 538,144.5C 538.366,142.548 539.199,140.882 540.5,139.5 Z"/></g>
<g><path style="opacity:0.747" fill="#fefefe" d="M 563.5,135.5 C 565.288,135.215 566.955,135.548 568.5,136.5C 571.333,142.833 574.167,149.167 577,155.5C 577.5,148.842 577.666,142.175 577.5,135.5C 578.833,135.5 580.167,135.5 581.5,135.5C 581.5,145.833 581.5,156.167 581.5,166.5C 579.712,166.785 578.045,166.452 576.5,165.5C 573.391,158.949 570.558,152.282 568,145.5C 567.5,152.492 567.334,159.492 567.5,166.5C 566.167,166.5 564.833,166.5 563.5,166.5C 563.5,156.167 563.5,145.833 563.5,135.5 Z"/></g>
<g><path style="opacity:0.697" fill="#fefefe" d="M 593.5,135.5 C 598.412,135.063 603.078,135.896 607.5,138C 612.869,147.22 612.535,156.22 606.5,165C 602.3,166.367 597.967,166.867 593.5,166.5C 593.5,156.167 593.5,145.833 593.5,135.5 Z M 598.5,139.5 C 604.835,140.557 607.501,144.39 606.5,151C 606.935,155.366 605.602,159.032 602.5,162C 601.207,162.49 599.873,162.657 598.5,162.5C 598.5,154.833 598.5,147.167 598.5,139.5 Z"/></g>
<g><path style="opacity:0.737" fill="#fefefe" d="M 627.5,135.5 C 634.244,134.282 638.411,136.949 640,143.5C 640.861,149.585 640.527,155.585 639,161.5C 636.167,166.777 632,168.277 626.5,166C 624.106,164.048 622.606,161.548 622,158.5C 620.902,151.615 621.569,144.949 624,138.5C 625.145,137.364 626.312,136.364 627.5,135.5 Z M 629.5,139.5 C 631.903,139.393 633.736,140.393 635,142.5C 636.919,148.156 636.919,153.822 635,159.5C 632.333,164.833 629.667,164.833 627,159.5C 624.532,152.287 625.366,145.62 629.5,139.5 Z"/></g>
<g><path style="opacity:0.694" fill="#fefefe" d="M 651.5,135.5 C 653.467,135.261 655.301,135.594 657,136.5C 660.275,143.384 663.275,150.384 666,157.5C 666.5,150.174 666.666,142.841 666.5,135.5C 667.833,135.5 669.167,135.5 670.5,135.5C 670.5,145.833 670.5,156.167 670.5,166.5C 668.533,166.739 666.699,166.406 665,165.5C 662.138,159.248 659.472,152.915 657,146.5C 656.5,153.158 656.334,159.825 656.5,166.5C 654.833,166.5 653.167,166.5 651.5,166.5C 651.5,156.167 651.5,145.833 651.5,135.5 Z"/></g>
<g><path style="opacity:0.711" fill="#fefefe" d="M 700.5,135.5 C 707.063,135.589 709.563,138.922 708,145.5C 704.84,148.92 704.84,152.254 708,155.5C 708.687,152.574 710.52,151.241 713.5,151.5C 713.073,154.376 712.406,157.209 711.5,160C 712.112,162.058 713.112,163.891 714.5,165.5C 712.051,166.91 709.884,166.576 708,164.5C 704.581,167.867 700.915,168.2 697,165.5C 694.451,159.591 695.284,154.257 699.5,149.5C 696.549,144.478 696.882,139.812 700.5,135.5 Z M 701.5,139.5 C 703.484,139.484 704.484,140.484 704.5,142.5C 704.281,143.938 703.781,145.271 703,146.5C 701.798,144.323 701.298,141.989 701.5,139.5 Z M 701.5,153.5 C 702.94,155.535 704.273,157.702 705.5,160C 704.313,162.59 702.48,163.09 700,161.5C 699.109,158.502 699.609,155.836 701.5,153.5 Z"/></g>
<g><path style="opacity:0.748" fill="#fefefe" d="M 738.5,135.5 C 740.288,135.215 741.955,135.548 743.5,136.5C 746.236,143.208 749.069,149.874 752,156.5C 752.5,149.508 752.666,142.508 752.5,135.5C 753.833,135.5 755.167,135.5 756.5,135.5C 756.5,145.833 756.5,156.167 756.5,166.5C 754.533,166.739 752.699,166.406 751,165.5C 748.609,159.051 745.942,152.718 743,146.5C 742.5,153.158 742.334,159.825 742.5,166.5C 741.167,166.5 739.833,166.5 738.5,166.5C 738.5,156.167 738.5,145.833 738.5,135.5 Z"/></g>
<g><path style="opacity:0.746" fill="#fefefe" d="M 768.5,135.5 C 772.833,135.5 777.167,135.5 781.5,135.5C 781.5,136.833 781.5,138.167 781.5,139.5C 778.5,139.5 775.5,139.5 772.5,139.5C 772.5,142.5 772.5,145.5 772.5,148.5C 775.167,148.5 777.833,148.5 780.5,148.5C 780.5,149.833 780.5,151.167 780.5,152.5C 777.833,152.5 775.167,152.5 772.5,152.5C 772.5,155.833 772.5,159.167 772.5,162.5C 775.5,162.5 778.5,162.5 781.5,162.5C 781.5,163.833 781.5,165.167 781.5,166.5C 777.167,166.5 772.833,166.5 768.5,166.5C 768.5,156.167 768.5,145.833 768.5,135.5 Z"/></g>
<g><path style="opacity:0.724" fill="#fefefe" d="M 789.5,135.5 C 791.451,135.227 792.951,135.893 794,137.5C 795.333,144.167 796.667,150.833 798,157.5C 799.695,150.194 801.195,142.86 802.5,135.5C 804.451,135.227 805.951,135.893 807,137.5C 808.462,144.476 809.795,151.476 811,158.5C 812.567,150.833 814.067,143.166 815.5,135.5C 816.833,135.5 818.167,135.5 819.5,135.5C 818.119,145.24 816.285,154.907 814,164.5C 812.599,166.192 810.766,166.859 808.5,166.5C 807.529,160.143 806.362,153.81 805,147.5C 802.936,153.643 801.436,159.976 800.5,166.5C 798.833,166.5 797.167,166.5 795.5,166.5C 793.244,156.219 791.244,145.885 789.5,135.5 Z"/></g>
<g><path style="opacity:0.704" fill="#fefefe" d="M 840.5,135.5 C 842.167,135.5 843.833,135.5 845.5,135.5C 846.558,139.844 847.724,144.177 849,148.5C 850.333,144.5 851.667,140.5 853,136.5C 854.356,135.62 855.856,135.286 857.5,135.5C 856.173,141.314 854.34,146.981 852,152.5C 851.501,157.155 851.334,161.821 851.5,166.5C 850.167,166.5 848.833,166.5 847.5,166.5C 847.665,162.818 847.499,159.152 847,155.5C 844.726,148.847 842.56,142.18 840.5,135.5 Z"/></g>
<g><path style="opacity:0.72" fill="#fefefe" d="M 871.5,135.5 C 879.702,134.53 884.202,138.196 885,146.5C 886.167,153.673 884.667,160.173 880.5,166C 870.862,168.724 866.029,164.891 866,154.5C 864.758,147.168 866.592,140.835 871.5,135.5 Z M 873.5,139.5 C 877.251,139.082 879.418,140.749 880,144.5C 880.667,149.167 880.667,153.833 880,158.5C 877,163.833 874,163.833 871,158.5C 870.333,153.833 870.333,149.167 871,144.5C 871.366,142.548 872.199,140.882 873.5,139.5 Z"/></g>
<g><path style="opacity:0.744" fill="#fefefe" d="M 896.5,135.5 C 911.385,134.987 915.052,141.153 907.5,154C 909.601,158.03 911.268,162.196 912.5,166.5C 910.833,166.5 909.167,166.5 907.5,166.5C 906.466,162.757 905.132,159.09 903.5,155.5C 902.675,154.614 901.675,154.281 900.5,154.5C 900.5,158.5 900.5,162.5 900.5,166.5C 899.167,166.5 897.833,166.5 896.5,166.5C 896.5,156.167 896.5,145.833 896.5,135.5 Z M 900.5,139.5 C 906.377,140.242 908.044,143.409 905.5,149C 903.975,150.009 902.308,150.509 900.5,150.5C 900.5,146.833 900.5,143.167 900.5,139.5 Z"/></g>
<g><path style="opacity:0.734" fill="#fefefe" d="M 922.5,135.5 C 923.833,135.5 925.167,135.5 926.5,135.5C 926.334,139.846 926.501,144.179 927,148.5C 928.966,144.374 931.132,140.374 933.5,136.5C 935.167,135.167 936.833,135.167 938.5,136.5C 935.776,140.78 933.443,145.28 931.5,150C 934.265,155.359 936.599,160.859 938.5,166.5C 936.712,166.785 935.045,166.452 933.5,165.5C 931.941,161.381 930.107,157.381 928,153.5C 926.569,157.635 926.069,161.968 926.5,166.5C 925.167,166.5 923.833,166.5 922.5,166.5C 922.5,156.167 922.5,145.833 922.5,135.5 Z"/></g>
<g><path style="opacity:0.656" fill="#fefefe" d="M 235.5,202.5 C 239.167,202.5 242.833,202.5 246.5,202.5C 246.5,203.5 246.5,204.5 246.5,205.5C 244.167,205.5 241.833,205.5 239.5,205.5C 239.5,207.833 239.5,210.167 239.5,212.5C 241.5,212.5 243.5,212.5 245.5,212.5C 245.5,213.833 245.5,215.167 245.5,216.5C 243.5,216.5 241.5,216.5 239.5,216.5C 239.5,219.167 239.5,221.833 239.5,224.5C 241.833,224.5 244.167,224.5 246.5,224.5C 246.5,225.5 246.5,226.5 246.5,227.5C 242.833,227.5 239.167,227.5 235.5,227.5C 235.5,219.167 235.5,210.833 235.5,202.5 Z"/></g>
<g><path style="opacity:0.639" fill="#fefefe" d="M 254.5,202.5 C 255.833,202.5 257.167,202.5 258.5,202.5C 258.334,209.175 258.5,215.842 259,222.5C 260.667,225.167 262.333,225.167 264,222.5C 264.5,215.842 264.666,209.175 264.5,202.5C 265.833,202.5 267.167,202.5 268.5,202.5C 268.666,209.175 268.5,215.842 268,222.5C 267.425,226.242 265.259,227.908 261.5,227.5C 258.185,228.016 256.018,226.683 255,223.5C 254.5,216.508 254.334,209.508 254.5,202.5 Z"/></g>
<g><path style="opacity:0.665" fill="#fefefe" d="M 277.5,202.5 C 289.819,201.659 292.819,206.493 286.5,217C 288.33,220.324 289.663,223.824 290.5,227.5C 289.167,227.5 287.833,227.5 286.5,227.5C 283.195,214.628 281.529,214.628 281.5,227.5C 280.167,227.5 278.833,227.5 277.5,227.5C 277.5,219.167 277.5,210.833 277.5,202.5 Z M 281.5,205.5 C 282.708,206.234 284.041,206.567 285.5,206.5C 286.903,209.951 285.903,212.618 282.5,214.5C 281.516,211.572 281.183,208.572 281.5,205.5 Z"/></g>
<g><path style="opacity:0.682" fill="#fefefe" d="M 302.5,202.5 C 308.549,201.053 312.049,203.386 313,209.5C 314.393,215.924 313.227,221.757 309.5,227C 305.058,228.378 301.558,227.212 299,223.5C 296.831,217.026 297.164,210.693 300,204.5C 300.995,203.934 301.828,203.267 302.5,202.5 Z M 304.5,205.5 C 308.606,207.204 310.273,210.371 309.5,215C 310.19,219.087 308.857,222.254 305.5,224.5C 302.143,222.254 300.81,219.087 301.5,215C 301.109,211.329 302.109,208.162 304.5,205.5 Z"/></g>
<g><path style="opacity:0.738" fill="#fefefe" d="M 322.5,202.5 C 333.151,201.149 336.651,205.482 333,215.5C 331.115,217.02 328.949,218.02 326.5,218.5C 325.516,221.428 325.183,224.428 325.5,227.5C 324.5,227.5 323.5,227.5 322.5,227.5C 322.5,219.167 322.5,210.833 322.5,202.5 Z M 325.5,205.5 C 330.79,206.767 331.79,209.6 328.5,214C 327.552,214.483 326.552,214.649 325.5,214.5C 325.5,211.5 325.5,208.5 325.5,205.5 Z"/></g>
<g><path style="opacity:0.68" fill="#fefefe" d="M 342.5,202.5 C 345.833,202.5 349.167,202.5 352.5,202.5C 352.5,203.5 352.5,204.5 352.5,205.5C 350.5,205.5 348.5,205.5 346.5,205.5C 346.5,207.833 346.5,210.167 346.5,212.5C 348.5,212.5 350.5,212.5 352.5,212.5C 352.5,213.833 352.5,215.167 352.5,216.5C 350.5,216.5 348.5,216.5 346.5,216.5C 346.5,219.167 346.5,221.833 346.5,224.5C 348.5,224.5 350.5,224.5 352.5,224.5C 352.5,225.5 352.5,226.5 352.5,227.5C 349.167,227.5 345.833,227.5 342.5,227.5C 342.5,219.167 342.5,210.833 342.5,202.5 Z"/></g>
<g><path style="opacity:0.688" fill="#fefefe" d="M 364.5,202.5 C 366.144,202.286 367.644,202.62 369,203.5C 371.153,211.444 372.986,219.444 374.5,227.5C 373.167,227.5 371.833,227.5 370.5,227.5C 370.167,224.833 369.833,222.167 369.5,219.5C 367.712,219.215 366.045,219.548 364.5,220.5C 363.833,222.5 363.167,224.5 362.5,226.5C 361.277,227.614 359.944,227.781 358.5,227C 360.731,218.91 362.731,210.743 364.5,202.5 Z M 366.5,210.5 C 367.306,211.997 367.972,213.664 368.5,215.5C 367.675,216.386 366.675,216.719 365.5,216.5C 365.517,214.435 365.85,212.435 366.5,210.5 Z"/></g>
<g><path style="opacity:0.684" fill="#fefefe" d="M 381.5,202.5 C 383.167,202.5 384.833,202.5 386.5,202.5C 388.362,208.248 390.529,213.915 393,219.5C 393.499,213.843 393.666,208.176 393.5,202.5C 394.5,202.5 395.5,202.5 396.5,202.5C 396.5,210.833 396.5,219.167 396.5,227.5C 394.856,227.714 393.356,227.38 392,226.5C 390,221.833 388,217.167 386,212.5C 385.501,217.489 385.334,222.489 385.5,227.5C 384.167,227.5 382.833,227.5 381.5,227.5C 381.5,219.167 381.5,210.833 381.5,202.5 Z"/></g>
<g><path style="opacity:0.634" fill="#fefefe" d="M 417.5,202.5 C 418.833,202.5 420.167,202.5 421.5,202.5C 421.5,205.833 421.5,209.167 421.5,212.5C 423.5,212.5 425.5,212.5 427.5,212.5C 427.5,209.167 427.5,205.833 427.5,202.5C 428.833,202.5 430.167,202.5 431.5,202.5C 431.5,210.833 431.5,219.167 431.5,227.5C 430.167,227.5 428.833,227.5 427.5,227.5C 427.5,223.833 427.5,220.167 427.5,216.5C 425.5,216.5 423.5,216.5 421.5,216.5C 421.5,220.167 421.5,223.833 421.5,227.5C 420.167,227.5 418.833,227.5 417.5,227.5C 417.5,219.167 417.5,210.833 417.5,202.5 Z"/></g>
<g><path style="opacity:0.688" fill="#fefefe" d="M 444.5,202.5 C 446.451,202.227 447.951,202.893 449,204.5C 450.644,211.889 452.477,219.223 454.5,226.5C 453.167,227.833 451.833,227.833 450.5,226.5C 449.811,224.556 449.311,222.556 449,220.5C 447.333,219.167 445.667,219.167 444,220.5C 443.338,222.813 442.838,225.146 442.5,227.5C 441.167,227.5 439.833,227.5 438.5,227.5C 440.349,219.105 442.349,210.772 444.5,202.5 Z M 445.5,210.5 C 447.28,211.99 447.946,213.99 447.5,216.5C 446.448,216.649 445.448,216.483 444.5,216C 445.406,214.301 445.739,212.467 445.5,210.5 Z"/></g>
<g><path style="opacity:0.687" fill="#fefefe" d="M 461.5,202.5 C 463.144,202.286 464.644,202.62 466,203.5C 468,208.167 470,212.833 472,217.5C 472.499,212.511 472.666,207.511 472.5,202.5C 473.833,202.5 475.167,202.5 476.5,202.5C 476.5,210.833 476.5,219.167 476.5,227.5C 474.833,227.5 473.167,227.5 471.5,227.5C 469.638,221.752 467.471,216.085 465,210.5C 464.501,216.157 464.334,221.824 464.5,227.5C 463.5,227.5 462.5,227.5 461.5,227.5C 461.5,219.167 461.5,210.833 461.5,202.5 Z"/></g>
<g><path style="opacity:0.664" fill="#fefefe" d="M 485.5,202.5 C 495.671,200.504 500.338,204.671 499.5,215C 500.012,224.989 495.345,229.156 485.5,227.5C 485.5,219.167 485.5,210.833 485.5,202.5 Z M 489.5,205.5 C 494.358,206.693 496.358,209.859 495.5,215C 496.329,219.856 494.496,223.022 490,224.5C 489.5,218.175 489.334,211.842 489.5,205.5 Z"/></g>
<g><path style="opacity:0.682" fill="#fefefe" d="M 508.5,202.5 C 510.167,202.5 511.833,202.5 513.5,202.5C 514.683,208.565 516.183,214.565 518,220.5C 519.932,214.87 521.766,209.203 523.5,203.5C 525.045,202.548 526.712,202.215 528.5,202.5C 528.5,210.833 528.5,219.167 528.5,227.5C 527.167,227.5 525.833,227.5 524.5,227.5C 525.044,209.143 523.71,209.143 520.5,227.5C 519.022,227.762 517.689,227.429 516.5,226.5C 514.846,221.552 513.346,216.552 512,211.5C 511.501,216.823 511.334,222.156 511.5,227.5C 510.5,227.5 509.5,227.5 508.5,227.5C 508.5,219.167 508.5,210.833 508.5,202.5 Z"/></g>
<g><path style="opacity:0.695" fill="#fefefe" d="M 540.5,202.5 C 542.167,202.5 543.833,202.5 545.5,202.5C 547.326,210.804 548.993,219.137 550.5,227.5C 549.178,227.67 548.011,227.337 547,226.5C 546.338,224.187 545.838,221.854 545.5,219.5C 543.833,219.5 542.167,219.5 540.5,219.5C 539.908,222.127 539.575,224.794 539.5,227.5C 538.167,227.5 536.833,227.5 535.5,227.5C 537.008,219.133 538.675,210.8 540.5,202.5 Z M 542.5,208.5 C 543.531,210.961 544.198,213.627 544.5,216.5C 543.5,216.5 542.5,216.5 541.5,216.5C 542.092,213.873 542.425,211.206 542.5,208.5 Z"/></g>
<g><path style="opacity:0.751" fill="#fefefe" d="M 558.5,202.5 C 567.997,200.999 572.33,204.999 571.5,214.5C 572.807,224.527 568.473,228.86 558.5,227.5C 558.5,219.167 558.5,210.833 558.5,202.5 Z M 561.5,205.5 C 566.647,206.696 568.981,210.029 568.5,215.5C 568.642,220.001 566.642,223.001 562.5,224.5C 561.504,218.202 561.17,211.868 561.5,205.5 Z"/></g>
<g><path style="opacity:0.655" fill="#fefefe" d="M 580.5,202.5 C 584.167,202.5 587.833,202.5 591.5,202.5C 591.5,203.5 591.5,204.5 591.5,205.5C 589.167,205.5 586.833,205.5 584.5,205.5C 584.5,207.833 584.5,210.167 584.5,212.5C 586.5,212.5 588.5,212.5 590.5,212.5C 590.5,213.833 590.5,215.167 590.5,216.5C 588.5,216.5 586.5,216.5 584.5,216.5C 584.5,219.167 584.5,221.833 584.5,224.5C 586.833,224.5 589.167,224.5 591.5,224.5C 591.5,225.5 591.5,226.5 591.5,227.5C 587.833,227.5 584.167,227.5 580.5,227.5C 580.5,219.167 580.5,210.833 580.5,202.5 Z"/></g>
<g><path style="opacity:0.829" fill="#fefefe" d="M 611.5,202.5 C 612.5,202.5 613.5,202.5 614.5,202.5C 614.5,210.833 614.5,219.167 614.5,227.5C 613.5,227.5 612.5,227.5 611.5,227.5C 611.5,219.167 611.5,210.833 611.5,202.5 Z"/></g>
<g><path style="opacity:0.681" fill="#fefefe" d="M 624.5,202.5 C 626.167,202.5 627.833,202.5 629.5,202.5C 630.688,208.233 632.188,213.9 634,219.5C 636.119,214.312 637.952,208.979 639.5,203.5C 641.045,202.548 642.712,202.215 644.5,202.5C 644.5,210.833 644.5,219.167 644.5,227.5C 643.167,227.5 641.833,227.5 640.5,227.5C 641.044,209.143 639.71,209.143 636.5,227.5C 635.022,227.762 633.689,227.429 632.5,226.5C 630.901,221.535 629.401,216.535 628,211.5C 627.501,216.823 627.334,222.156 627.5,227.5C 626.5,227.5 625.5,227.5 624.5,227.5C 624.5,219.167 624.5,210.833 624.5,202.5 Z"/></g>
<g><path style="opacity:0.662" fill="#fefefe" d="M 653.5,202.5 C 663.329,200.828 667.162,204.828 665,214.5C 663.397,216.656 661.23,217.99 658.5,218.5C 657.516,221.428 657.183,224.428 657.5,227.5C 656.167,227.5 654.833,227.5 653.5,227.5C 653.5,219.167 653.5,210.833 653.5,202.5 Z M 657.5,205.5 C 662.204,207.113 663.204,209.946 660.5,214C 659.552,214.483 658.552,214.649 657.5,214.5C 657.5,211.5 657.5,208.5 657.5,205.5 Z"/></g>
<g><path style="opacity:0.722" fill="#fefefe" d="M 677.5,202.5 C 682.439,201.352 685.939,203.019 688,207.5C 688.667,212.5 688.667,217.5 688,222.5C 685.928,227.143 682.428,228.643 677.5,227C 675.513,225.681 674.346,223.848 674,221.5C 673.333,216.833 673.333,212.167 674,207.5C 674.997,205.677 676.164,204.01 677.5,202.5 Z M 679.5,205.5 C 681.39,205.297 682.89,205.963 684,207.5C 686,212.167 686,216.833 684,221.5C 682,225.5 680,225.5 678,221.5C 676.205,215.968 676.705,210.635 679.5,205.5 Z"/></g>
<g><path style="opacity:0.665" fill="#fefefe" d="M 697.5,202.5 C 709.819,201.659 712.819,206.493 706.5,217C 708.33,220.324 709.663,223.824 710.5,227.5C 709.167,227.5 707.833,227.5 706.5,227.5C 703.195,214.628 701.529,214.628 701.5,227.5C 700.167,227.5 698.833,227.5 697.5,227.5C 697.5,219.167 697.5,210.833 697.5,202.5 Z M 701.5,205.5 C 702.708,206.234 704.041,206.567 705.5,206.5C 706.903,209.951 705.903,212.618 702.5,214.5C 701.516,211.572 701.183,208.572 701.5,205.5 Z"/></g>
<g><path style="opacity:0.662" fill="#fefefe" d="M 716.5,202.5 C 720.833,202.5 725.167,202.5 729.5,202.5C 729.5,203.5 729.5,204.5 729.5,205.5C 727.833,205.5 726.167,205.5 724.5,205.5C 724.5,212.833 724.5,220.167 724.5,227.5C 723.167,227.5 721.833,227.5 720.5,227.5C 720.5,220.167 720.5,212.833 720.5,205.5C 719.167,205.5 717.833,205.5 716.5,205.5C 716.5,204.5 716.5,203.5 716.5,202.5 Z"/></g>
<g><path style="opacity:0.688" fill="#fefefe" d="M 739.5,202.5 C 741.167,202.5 742.833,202.5 744.5,202.5C 746.326,210.804 747.993,219.137 749.5,227.5C 748.178,227.67 747.011,227.337 746,226.5C 745.338,224.187 744.838,221.854 744.5,219.5C 742.833,219.5 741.167,219.5 739.5,219.5C 738.908,222.127 738.575,224.794 738.5,227.5C 737.167,227.5 735.833,227.5 734.5,227.5C 736.007,219.137 737.674,210.804 739.5,202.5 Z M 741.5,209.5 C 742.612,211.599 743.279,213.933 743.5,216.5C 742.5,216.5 741.5,216.5 740.5,216.5C 740.993,214.194 741.326,211.861 741.5,209.5 Z"/></g>
<g><path style="opacity:0.687" fill="#fefefe" d="M 756.5,202.5 C 758.288,202.215 759.955,202.548 761.5,203.5C 763.667,208.5 765.833,213.5 768,218.5C 768.499,213.177 768.666,207.844 768.5,202.5C 769.5,202.5 770.5,202.5 771.5,202.5C 771.5,210.833 771.5,219.167 771.5,227.5C 770.022,227.762 768.689,227.429 767.5,226.5C 765.236,221.541 763.069,216.541 761,211.5C 760.501,216.823 760.334,222.156 760.5,227.5C 759.167,227.5 757.833,227.5 756.5,227.5C 756.5,219.167 756.5,210.833 756.5,202.5 Z"/></g>
<g><path style="opacity:0.662" fill="#fefefe" d="M 779.5,202.5 C 783.833,202.5 788.167,202.5 792.5,202.5C 792.5,203.5 792.5,204.5 792.5,205.5C 790.833,205.5 789.167,205.5 787.5,205.5C 787.5,212.833 787.5,220.167 787.5,227.5C 786.167,227.5 784.833,227.5 783.5,227.5C 783.5,220.167 783.5,212.833 783.5,205.5C 782.167,205.5 780.833,205.5 779.5,205.5C 779.5,204.5 779.5,203.5 779.5,202.5 Z"/></g>
<g><path style="opacity:0.75" fill="#fefefe" d="M 811.5,202.5 C 814.833,202.5 818.167,202.5 821.5,202.5C 821.5,203.5 821.5,204.5 821.5,205.5C 819.167,205.5 816.833,205.5 814.5,205.5C 814.5,208.167 814.5,210.833 814.5,213.5C 816.833,213.5 819.167,213.5 821.5,213.5C 821.5,214.833 821.5,216.167 821.5,217.5C 819.167,217.5 816.833,217.5 814.5,217.5C 814.5,220.833 814.5,224.167 814.5,227.5C 813.5,227.5 812.5,227.5 811.5,227.5C 811.5,219.167 811.5,210.833 811.5,202.5 Z"/></g>
<g><path style="opacity:0.791" fill="#fefefe" d="M 829.5,202.5 C 830.5,202.5 831.5,202.5 832.5,202.5C 832.334,208.842 832.5,215.175 833,221.5C 835,225.5 837,225.5 839,221.5C 839.5,215.175 839.666,208.842 839.5,202.5C 840.5,202.5 841.5,202.5 842.5,202.5C 842.666,209.841 842.5,217.174 842,224.5C 840.704,226.815 838.704,227.815 836,227.5C 833.296,227.815 831.296,226.815 830,224.5C 829.5,217.174 829.334,209.841 829.5,202.5 Z"/></g>
<g><path style="opacity:0.734" fill="#fefefe" d="M 852.5,202.5 C 864.053,201.982 867.053,206.815 861.5,217C 862.736,220.207 864.069,223.374 865.5,226.5C 864.277,227.614 862.944,227.781 861.5,227C 857.47,214.458 855.47,214.624 855.5,227.5C 854.5,227.5 853.5,227.5 852.5,227.5C 852.5,219.167 852.5,210.833 852.5,202.5 Z M 855.5,205.5 C 860.012,205.869 861.512,208.202 860,212.5C 858.915,213.293 857.748,213.96 856.5,214.5C 855.516,211.572 855.183,208.572 855.5,205.5 Z"/></g>
<g><path style="opacity:0.76" fill="#fefefe" d="M 873.5,202.5 C 874.978,202.238 876.311,202.571 877.5,203.5C 879.667,208.5 881.833,213.5 884,218.5C 884.499,213.177 884.666,207.844 884.5,202.5C 885.5,202.5 886.5,202.5 887.5,202.5C 887.5,210.833 887.5,219.167 887.5,227.5C 886.022,227.762 884.689,227.429 883.5,226.5C 881.333,221.5 879.167,216.5 877,211.5C 876.501,216.823 876.334,222.156 876.5,227.5C 875.5,227.5 874.5,227.5 873.5,227.5C 873.5,219.167 873.5,210.833 873.5,202.5 Z"/></g>
<g><path style="opacity:0.828" fill="#fefefe" d="M 897.5,202.5 C 898.5,202.5 899.5,202.5 900.5,202.5C 900.5,210.833 900.5,219.167 900.5,227.5C 899.5,227.5 898.5,227.5 897.5,227.5C 897.5,219.167 897.5,210.833 897.5,202.5 Z"/></g>
<g><path style="opacity:0.662" fill="#fefefe" d="M 908.5,202.5 C 912.833,202.5 917.167,202.5 921.5,202.5C 921.5,203.5 921.5,204.5 921.5,205.5C 919.833,205.5 918.167,205.5 916.5,205.5C 916.5,212.833 916.5,220.167 916.5,227.5C 915.167,227.5 913.833,227.5 912.5,227.5C 912.5,220.167 912.5,212.833 912.5,205.5C 911.167,205.5 909.833,205.5 908.5,205.5C 908.5,204.5 908.5,203.5 908.5,202.5 Z"/></g>
<g><path style="opacity:0.707" fill="#fefefe" d="M 928.5,202.5 C 929.5,202.5 930.5,202.5 931.5,202.5C 931.161,209.574 931.661,216.574 933,223.5C 934.938,224.86 936.604,224.527 938,222.5C 938.5,215.842 938.666,209.175 938.5,202.5C 939.833,202.5 941.167,202.5 942.5,202.5C 942.811,210.228 942.311,217.895 941,225.5C 936.731,228.383 932.731,228.05 929,224.5C 928.5,217.174 928.334,209.841 928.5,202.5 Z"/></g>
<g><path style="opacity:0.723" fill="#fefefe" d="M 951.5,202.5 C 963.289,201.914 966.289,206.748 960.5,217C 961.971,220.109 963.305,223.276 964.5,226.5C 963.167,227.833 961.833,227.833 960.5,226.5C 956.132,214.307 954.132,214.64 954.5,227.5C 953.5,227.5 952.5,227.5 951.5,227.5C 951.5,219.167 951.5,210.833 951.5,202.5 Z M 954.5,205.5 C 959.012,205.869 960.512,208.202 959,212.5C 957.915,213.293 956.748,213.96 955.5,214.5C 954.516,211.572 954.183,208.572 954.5,205.5 Z"/></g>
<g><path style="opacity:0.752" fill="#fefefe" d="M 972.5,202.5 C 975.833,202.5 979.167,202.5 982.5,202.5C 982.5,203.5 982.5,204.5 982.5,205.5C 980.167,205.5 977.833,205.5 975.5,205.5C 975.5,207.833 975.5,210.167 975.5,212.5C 977.833,212.5 980.167,212.5 982.5,212.5C 982.5,213.833 982.5,215.167 982.5,216.5C 980.167,216.5 977.833,216.5 975.5,216.5C 975.5,219.167 975.5,221.833 975.5,224.5C 977.833,224.5 980.167,224.5 982.5,224.5C 982.5,225.5 982.5,226.5 982.5,227.5C 979.167,227.5 975.833,227.5 972.5,227.5C 972.5,219.167 972.5,210.833 972.5,202.5 Z"/></g>
<g><path style="opacity:0.675" fill="#fefefe" d="M 1006.5,202.5 C 1009.19,202.336 1011.85,202.503 1014.5,203C 1015.82,204.545 1015.49,205.711 1013.5,206.5C 1010.75,205.025 1008.59,205.691 1007,208.5C 1005.03,213.304 1005.36,217.97 1008,222.5C 1009.52,224.62 1011.36,224.953 1013.5,223.5C 1014.43,224.689 1014.76,226.022 1014.5,227.5C 1008.65,228.998 1004.82,226.998 1003,221.5C 1002.33,217.167 1002.33,212.833 1003,208.5C 1003.56,206.113 1004.73,204.113 1006.5,202.5 Z"/></g>
<g><path style="opacity:0.675" fill="#fefefe" d="M 1026.5,202.5 C 1028.86,202.337 1031.19,202.503 1033.5,203C 1035.33,203.5 1036.5,204.667 1037,206.5C 1039.56,213.831 1038.73,220.664 1034.5,227C 1028.07,229.238 1024.24,227.072 1023,220.5C 1021.64,213.871 1022.8,207.871 1026.5,202.5 Z M 1029.5,205.5 C 1031.02,205.511 1032.18,206.177 1033,207.5C 1034.46,211.741 1034.79,216.074 1034,220.5C 1031.67,225.833 1029.33,225.833 1027,220.5C 1025.78,215.043 1026.61,210.043 1029.5,205.5 Z"/></g>
<g><path style="opacity:0.811" fill="#fefefe" d="M 1047.5,202.5 C 1048.5,202.5 1049.5,202.5 1050.5,202.5C 1050.5,209.833 1050.5,217.167 1050.5,224.5C 1052.83,224.5 1055.17,224.5 1057.5,224.5C 1057.5,225.5 1057.5,226.5 1057.5,227.5C 1054.17,227.5 1050.83,227.5 1047.5,227.5C 1047.5,219.167 1047.5,210.833 1047.5,202.5 Z"/></g>
<g><path style="opacity:0.644" fill="#fefefe" d="M 1064.5,202.5 C 1065.83,202.5 1067.17,202.5 1068.5,202.5C 1068.5,209.833 1068.5,217.167 1068.5,224.5C 1070.83,224.5 1073.17,224.5 1075.5,224.5C 1075.5,225.5 1075.5,226.5 1075.5,227.5C 1071.83,227.5 1068.17,227.5 1064.5,227.5C 1064.5,219.167 1064.5,210.833 1064.5,202.5 Z"/></g>
<g><path style="opacity:0.656" fill="#fefefe" d="M 1082.5,202.5 C 1086.17,202.5 1089.83,202.5 1093.5,202.5C 1093.5,203.5 1093.5,204.5 1093.5,205.5C 1091.17,205.5 1088.83,205.5 1086.5,205.5C 1086.5,207.833 1086.5,210.167 1086.5,212.5C 1088.5,212.5 1090.5,212.5 1092.5,212.5C 1092.5,213.833 1092.5,215.167 1092.5,216.5C 1090.5,216.5 1088.5,216.5 1086.5,216.5C 1086.5,219.167 1086.5,221.833 1086.5,224.5C 1088.83,224.5 1091.17,224.5 1093.5,224.5C 1093.5,225.5 1093.5,226.5 1093.5,227.5C 1089.83,227.5 1086.17,227.5 1082.5,227.5C 1082.5,219.167 1082.5,210.833 1082.5,202.5 Z"/></g>
<g><path style="opacity:0.67" fill="#fefefe" d="M 1105.5,202.5 C 1108.72,202.108 1111.72,202.608 1114.5,204C 1113.62,206.568 1112.12,207.068 1110,205.5C 1106.25,207.194 1104.41,210.194 1104.5,214.5C 1104.29,219.091 1106.12,222.424 1110,224.5C 1112.72,223.162 1113.89,224.162 1113.5,227.5C 1104.79,228.461 1100.46,224.461 1100.5,215.5C 1100.6,210.473 1102.27,206.139 1105.5,202.5 Z"/></g>
<g><path style="opacity:0.662" fill="#fefefe" d="M 1119.5,202.5 C 1123.83,202.5 1128.17,202.5 1132.5,202.5C 1132.5,203.5 1132.5,204.5 1132.5,205.5C 1131.17,205.5 1129.83,205.5 1128.5,205.5C 1128.5,212.833 1128.5,220.167 1128.5,227.5C 1127.17,227.5 1125.83,227.5 1124.5,227.5C 1124.5,220.167 1124.5,212.833 1124.5,205.5C 1122.83,205.5 1121.17,205.5 1119.5,205.5C 1119.5,204.5 1119.5,203.5 1119.5,202.5 Z"/></g>
<g><path style="opacity:0.829" fill="#fefefe" d="M 1140.5,202.5 C 1141.5,202.5 1142.5,202.5 1143.5,202.5C 1143.5,210.833 1143.5,219.167 1143.5,227.5C 1142.5,227.5 1141.5,227.5 1140.5,227.5C 1140.5,219.167 1140.5,210.833 1140.5,202.5 Z"/></g>
<g><path style="opacity:0.679" fill="#fefefe" d="M 1156.5,202.5 C 1158.86,202.337 1161.19,202.503 1163.5,203C 1165.33,203.5 1166.5,204.667 1167,206.5C 1169,212.167 1169,217.833 1167,223.5C 1164.44,227.212 1160.94,228.378 1156.5,227C 1154.68,225.2 1153.52,223.034 1153,220.5C 1151.54,213.845 1152.71,207.845 1156.5,202.5 Z M 1159.5,205.5 C 1161.02,205.511 1162.18,206.177 1163,207.5C 1164.46,211.741 1164.79,216.074 1164,220.5C 1161.67,225.833 1159.33,225.833 1157,220.5C 1155.78,215.043 1156.61,210.043 1159.5,205.5 Z"/></g>
<g><path style="opacity:0.76" fill="#fefefe" d="M 1177.5,202.5 C 1178.98,202.238 1180.31,202.571 1181.5,203.5C 1183.67,208.5 1185.83,213.5 1188,218.5C 1188.5,213.177 1188.67,207.844 1188.5,202.5C 1189.5,202.5 1190.5,202.5 1191.5,202.5C 1191.5,210.833 1191.5,219.167 1191.5,227.5C 1190.02,227.762 1188.69,227.429 1187.5,226.5C 1185.33,221.5 1183.17,216.5 1181,211.5C 1180.5,216.823 1180.33,222.156 1180.5,227.5C 1179.5,227.5 1178.5,227.5 1177.5,227.5C 1177.5,219.167 1177.5,210.833 1177.5,202.5 Z"/></g>
<g><path style="opacity:0.662" fill="#fefefe" d="M 1203.5,202.5 C 1206.72,202.108 1209.72,202.608 1212.5,204C 1212,205.158 1211.17,205.991 1210,206.5C 1205.53,205.079 1203.87,206.745 1205,211.5C 1212.56,215.075 1214.06,220.242 1209.5,227C 1206.52,227.498 1203.52,227.665 1200.5,227.5C 1200.5,226.167 1200.5,224.833 1200.5,223.5C 1205.93,225.879 1208.43,224.213 1208,218.5C 1205.21,216.953 1202.88,214.953 1201,212.5C 1199.86,208.579 1200.69,205.246 1203.5,202.5 Z"/></g>
<g><path style="opacity:0.688" fill="#fefefe" d="M 551.5,275.5 C 550.167,275.5 548.833,275.5 547.5,275.5C 547.162,273.146 546.662,270.813 546,268.5C 544.333,267.167 542.667,267.167 541,268.5C 540.56,270.866 540.06,273.199 539.5,275.5C 538.167,275.5 536.833,275.5 535.5,275.5C 537.171,267.815 539.004,260.148 541,252.5C 542.667,249.833 544.333,249.833 546,252.5C 547.995,260.144 549.828,267.811 551.5,275.5 Z M 542.5,259.5 C 544.085,260.474 545.085,261.974 545.5,264C 544.167,264.667 542.833,264.667 541.5,264C 542.38,262.644 542.714,261.144 542.5,259.5 Z"/></g>
<g><path style="opacity:0.666" fill="#fefefe" d="M 565.5,275.5 C 564.167,275.5 562.833,275.5 561.5,275.5C 559.357,267.262 557.691,258.929 556.5,250.5C 557.822,250.33 558.989,250.663 560,251.5C 561.024,256.929 562.357,262.262 564,267.5C 565.329,261.852 566.496,256.185 567.5,250.5C 568.833,250.5 570.167,250.5 571.5,250.5C 569.751,258.918 567.751,267.252 565.5,275.5 Z"/></g>
<g><path style="opacity:0.703" fill="#fefefe" d="M 591.5,275.5 C 590.167,275.5 588.833,275.5 587.5,275.5C 587.167,272.833 586.833,270.167 586.5,267.5C 584.833,267.5 583.167,267.5 581.5,267.5C 581.142,270.267 580.475,272.933 579.5,275.5C 578.5,275.5 577.5,275.5 576.5,275.5C 578.007,267.137 579.674,258.804 581.5,250.5C 583.144,250.286 584.644,250.62 586,251.5C 588.153,259.444 589.986,267.444 591.5,275.5 Z M 583.5,257.5 C 584.283,259.343 584.95,261.343 585.5,263.5C 584.675,264.386 583.675,264.719 582.5,264.5C 582.993,262.194 583.326,259.861 583.5,257.5 Z"/></g>
<g><path style="opacity:0.621" fill="#fefefe" d="M 602.5,275.5 C 601.167,275.5 599.833,275.5 598.5,275.5C 598.5,267.167 598.5,258.833 598.5,250.5C 599.833,250.5 601.167,250.5 602.5,250.5C 602.5,258.833 602.5,267.167 602.5,275.5 Z"/></g>
<g><path style="opacity:0.644" fill="#fefefe" d="M 622.5,275.5 C 618.833,275.5 615.167,275.5 611.5,275.5C 611.5,267.167 611.5,258.833 611.5,250.5C 612.833,250.5 614.167,250.5 615.5,250.5C 615.5,257.833 615.5,265.167 615.5,272.5C 617.833,272.5 620.167,272.5 622.5,272.5C 622.5,273.5 622.5,274.5 622.5,275.5 Z"/></g>
<g><path style="opacity:0.703" fill="#fefefe" d="M 643.5,275.5 C 642.167,275.5 640.833,275.5 639.5,275.5C 638.837,273.196 638.17,270.863 637.5,268.5C 635.955,267.548 634.288,267.215 632.5,267.5C 632.167,270.167 631.833,272.833 631.5,275.5C 630.167,275.5 628.833,275.5 627.5,275.5C 629.014,267.444 630.847,259.444 633,251.5C 634.356,250.62 635.856,250.286 637.5,250.5C 639.034,258.968 641.034,267.302 643.5,275.5 Z M 634.5,257.5 C 635.924,259.515 636.59,261.848 636.5,264.5C 635.325,264.719 634.325,264.386 633.5,263.5C 634.348,261.591 634.682,259.591 634.5,257.5 Z"/></g>
<g><path style="opacity:0.741" fill="#fefefe" d="M 659.5,275.5 C 656.5,275.5 653.5,275.5 650.5,275.5C 650.5,267.167 650.5,258.833 650.5,250.5C 660.572,248.899 664.239,252.899 661.5,262.5C 664.214,267.387 663.548,271.72 659.5,275.5 Z M 653.5,253.5 C 655.117,254.038 656.784,254.371 658.5,254.5C 658.5,256.5 658.5,258.5 658.5,260.5C 657.07,260.421 655.736,260.754 654.5,261.5C 653.52,258.914 653.187,256.247 653.5,253.5 Z M 653.5,264.5 C 659.488,264.664 660.821,267.164 657.5,272C 656.207,272.49 654.873,272.657 653.5,272.5C 653.5,269.833 653.5,267.167 653.5,264.5 Z"/></g>
<g><path style="opacity:0.66" fill="#fefefe" d="M 681.5,275.5 C 678.167,275.5 674.833,275.5 671.5,275.5C 671.5,267.167 671.5,258.833 671.5,250.5C 672.833,250.5 674.167,250.5 675.5,250.5C 675.5,257.833 675.5,265.167 675.5,272.5C 677.5,272.5 679.5,272.5 681.5,272.5C 681.5,273.5 681.5,274.5 681.5,275.5 Z"/></g>
<g><path style="opacity:0.752" fill="#fefefe" d="M 699.5,275.5 C 696.167,275.5 692.833,275.5 689.5,275.5C 689.5,267.167 689.5,258.833 689.5,250.5C 692.833,250.5 696.167,250.5 699.5,250.5C 699.5,251.833 699.5,253.167 699.5,254.5C 697.167,254.5 694.833,254.5 692.5,254.5C 692.5,256.833 692.5,259.167 692.5,261.5C 694.833,261.5 697.167,261.5 699.5,261.5C 699.5,262.5 699.5,263.5 699.5,264.5C 697.167,264.5 694.833,264.5 692.5,264.5C 692.5,267.167 692.5,269.833 692.5,272.5C 694.833,272.5 697.167,272.5 699.5,272.5C 699.5,273.5 699.5,274.5 699.5,275.5 Z"/></g>
<g><path style="opacity:0.674" fill="#fefefe" d="M 737.5,275.5 C 736.167,275.5 734.833,275.5 733.5,275.5C 732.149,270.249 730.982,264.916 730,259.5C 729.018,264.916 727.851,270.249 726.5,275.5C 725.167,275.5 723.833,275.5 722.5,275.5C 720.961,267.14 719.295,258.806 717.5,250.5C 718.833,250.5 720.167,250.5 721.5,250.5C 722.217,256.252 723.384,261.919 725,267.5C 728.12,244.907 731.453,244.907 735,267.5C 736.361,261.86 737.528,256.194 738.5,250.5C 739.978,250.238 741.311,250.571 742.5,251.5C 740.577,259.448 738.91,267.448 737.5,275.5 Z"/></g>
<g><path style="opacity:0.672" fill="#fefefe" d="M 760.5,275.5 C 757.833,275.5 755.167,275.5 752.5,275.5C 747.614,267.902 747.281,260.069 751.5,252C 758.552,248.775 762.718,250.942 764,258.5C 765.315,264.754 764.148,270.42 760.5,275.5 Z M 755.5,253.5 C 759.62,255.235 761.287,258.402 760.5,263C 761.19,267.087 759.857,270.254 756.5,272.5C 753.143,270.254 751.81,267.087 752.5,263C 752.109,259.329 753.109,256.162 755.5,253.5 Z"/></g>
<g><path style="opacity:0.734" fill="#fefefe" d="M 786.5,275.5 C 785.167,275.5 783.833,275.5 782.5,275.5C 781.216,271.986 779.55,268.653 777.5,265.5C 776.513,268.768 776.18,272.102 776.5,275.5C 775.5,275.5 774.5,275.5 773.5,275.5C 773.5,267.167 773.5,258.833 773.5,250.5C 785.176,250.166 788.176,255.166 782.5,265.5C 783.843,268.85 785.177,272.183 786.5,275.5 Z M 776.5,254.5 C 779.59,253.83 781.257,254.997 781.5,258C 781.252,261.082 779.585,262.582 776.5,262.5C 776.5,259.833 776.5,257.167 776.5,254.5 Z"/></g>
<g><path style="opacity:0.643" fill="#fefefe" d="M 804.5,275.5 C 800.833,275.5 797.167,275.5 793.5,275.5C 793.5,267.167 793.5,258.833 793.5,250.5C 794.833,250.5 796.167,250.5 797.5,250.5C 797.5,257.833 797.5,265.167 797.5,272.5C 799.833,272.5 802.167,272.5 804.5,272.5C 804.5,273.5 804.5,274.5 804.5,275.5 Z"/></g>
<g><path style="opacity:0.661" fill="#fefefe" d="M 820.5,275.5 C 817.5,275.5 814.5,275.5 811.5,275.5C 811.5,267.167 811.5,258.833 811.5,250.5C 817.59,249.137 822.09,251.137 825,256.5C 825.667,260.833 825.667,265.167 825,269.5C 824.196,272.146 822.696,274.146 820.5,275.5 Z M 815.5,254.5 C 817.144,254.286 818.644,254.62 820,255.5C 822,260.5 822,265.5 820,270.5C 818.915,271.293 817.748,271.96 816.5,272.5C 815.504,266.537 815.171,260.537 815.5,254.5 Z"/></g>
<g><path style="opacity:0.669" fill="#fefefe" d="M 851.5,275.5 C 850.167,275.5 848.833,275.5 847.5,275.5C 846.778,270.391 845.612,265.391 844,260.5C 843.1,265.501 842.266,270.501 841.5,275.5C 839.833,275.5 838.167,275.5 836.5,275.5C 835.165,267.161 833.832,258.828 832.5,250.5C 834.124,250.36 835.29,251.027 836,252.5C 837,257.5 838,262.5 839,267.5C 840.361,261.86 841.528,256.194 842.5,250.5C 843.833,250.5 845.167,250.5 846.5,250.5C 848.5,270.5 850.5,270.5 852.5,250.5C 853.833,250.5 855.167,250.5 856.5,250.5C 855.212,258.939 853.546,267.272 851.5,275.5 Z"/></g>
<g><path style="opacity:0.62" fill="#fefefe" d="M 867.5,275.5 C 866.167,275.5 864.833,275.5 863.5,275.5C 863.5,267.167 863.5,258.833 863.5,250.5C 864.833,250.5 866.167,250.5 867.5,250.5C 867.5,258.833 867.5,267.167 867.5,275.5 Z"/></g>
<g><path style="opacity:0.655" fill="#fefefe" d="M 885.5,275.5 C 882.5,275.5 879.5,275.5 876.5,275.5C 876.5,267.167 876.5,258.833 876.5,250.5C 880.273,250.263 883.94,250.763 887.5,252C 890.412,257.461 891.245,263.294 890,269.5C 889.196,272.146 887.696,274.146 885.5,275.5 Z M 880.5,254.5 C 882.144,254.286 883.644,254.62 885,255.5C 887,260.5 887,265.5 885,270.5C 883.915,271.293 882.748,271.96 881.5,272.5C 880.504,266.537 880.171,260.537 880.5,254.5 Z"/></g>
<g><path style="opacity:0.681" fill="#fefefe" d="M 909.5,275.5 C 906.167,275.5 902.833,275.5 899.5,275.5C 899.5,267.167 899.5,258.833 899.5,250.5C 902.833,250.5 906.167,250.5 909.5,250.5C 909.5,251.833 909.5,253.167 909.5,254.5C 907.5,254.5 905.5,254.5 903.5,254.5C 903.5,256.833 903.5,259.167 903.5,261.5C 905.5,261.5 907.5,261.5 909.5,261.5C 909.5,262.5 909.5,263.5 909.5,264.5C 907.5,264.5 905.5,264.5 903.5,264.5C 903.5,267.167 903.5,269.833 903.5,272.5C 905.5,272.5 907.5,272.5 909.5,272.5C 909.5,273.5 909.5,274.5 909.5,275.5 Z"/></g>
</svg>
